<?xml version="1.0" encoding="UTF-8"?><svg id="Calque_1" xmlns="http://www.w3.org/2000/svg" xmlns:xlink="http://www.w3.org/1999/xlink" viewBox="0 0 1077 119"><defs><style>.cls-1{opacity:.12;}.cls-1,.cls-2,.cls-3{fill:#fff;}.cls-2{opacity:.1;}.cls-4{fill:#f2f2f2;opacity:.59;stroke:url(#Blanc__Noir);}.cls-4,.cls-3,.cls-5,.cls-6{stroke-miterlimit:10;}.cls-3{stroke:#b3b3b3;stroke-width:5px;}.cls-5{fill:url(#Dégradé_sans_nom_325);stroke:gray;}.cls-6{fill:url(#Dégradé_sans_nom_310);stroke:#666;}</style><linearGradient id="Dégradé_sans_nom_325" x1="1023.15" y1="70.7" x2="1001.05" y2="83.46" gradientTransform="matrix(1, 0, 0, 1, 0, 0)" gradientUnits="userSpaceOnUse"><stop offset=".16" stop-color="#b3b3b3"/><stop offset="1" stop-color="#000"/></linearGradient><linearGradient id="Dégradé_sans_nom_310" x1="1011.42" y1="24.37" x2="949.57" y2="60.09" gradientTransform="matrix(1, 0, 0, 1, 0, 0)" gradientUnits="userSpaceOnUse"><stop offset="0" stop-color="#ccc"/><stop offset="1" stop-color="#000"/></linearGradient><linearGradient id="Blanc__Noir" x1="951.51" y1="42.09" x2="1009.48" y2="42.09" gradientTransform="matrix(1, 0, 0, 1, 0, 0)" gradientUnits="userSpaceOnUse"><stop offset="0" stop-color="#fff"/><stop offset="1" stop-color="#000"/></linearGradient></defs><rect class="cls-3" x="2.5" y="2.5" width="1072" height="114" rx="52.94" ry="52.94"/><g><path class="cls-5" d="M1021.59,98.8l-31.94-35.25c-1.33-1.46-.98-3.57,.78-4.67l6.6-4.16c1.75-1.11,4.27-.81,5.6,.65l31.94,35.25c1.33,1.46,.98,3.57-.78,4.67l-6.6,4.16c-1.75,1.11-4.27,.81-5.6-.65Z"/><ellipse class="cls-6" cx="980.49" cy="42.23" rx="37.14" ry="30.99"/><ellipse class="cls-4" cx="980.49" cy="42.09" rx="28.48" ry="23.9"/><path class="cls-2" d="M991.37,60.95l8.89-32.42c.49-1.79-.86-3.59-3.01-3.99l-5.02-.96c-2.14-.41-4.3,.72-4.79,2.51l-8.89,32.42c-.49,1.79,.86,3.59,3.01,3.99l5.02,.96c2.14,.41,4.3-.72,4.79-2.51Z"/><path class="cls-1" d="M975.11,58.04l9.16-33.4c.49-1.79-.86-3.59-3.01-3.99l-4.44-.85c-2.14-.41-4.3,.72-4.79,2.51l-9.16,33.4c-.49,1.79,.86,3.59,3.01,3.99l4.44,.85c2.14,.41,4.3-.72,4.79-2.51Z"/></g></svg>