<?xml version="1.0" encoding="UTF-8"?>
<svg id="Calque_1" data-name="Calque 1" xmlns="http://www.w3.org/2000/svg" width="682.61" height="419" viewBox="0 0 682.61 419">
  <defs>
    <style>
      .cls-1, .cls-2 {
        opacity: .35;
      }

      .cls-1, .cls-3, .cls-4, .cls-5 {
        fill: #1a1a1a;
      }

      .cls-3 {
        opacity: .16;
      }

      .cls-6 {
        fill: #c69c6d;
      }

      .cls-7, .cls-8 {
        fill: #e6e6e6;
      }

      .cls-9 {
        fill: #42210b;
      }

      .cls-10 {
        opacity: .15;
      }

      .cls-4 {
        opacity: .58;
      }

      .cls-11 {
        opacity: .14;
      }

      .cls-11, .cls-12 {
        fill: #666;
      }

      .cls-12, .cls-8 {
        opacity: .1;
      }

      .cls-13 {
        fill: #1b1464;
        stroke: #000;
        stroke-miterlimit: 10;
      }

      .cls-5 {
        opacity: .19;
      }
    </style>
  </defs>
  <path class="cls-8" d="M524.32,349.41c0,29.55-111.48,53.5-249,53.5s-249-23.95-249-53.5,120.65,46.63,249,15.5c164.94-40,249-45.05,249-15.5Z"/>
  <g>
    <rect class="cls-13" x=".5" y=".5" width="555" height="418" rx="12" ry="12"/>
    <g>
      <g>
        <path class="cls-6" d="M142.9,268.45c14.15,27.44,28.28,48.6,22.38,50.15-10.37,2.72-35.78-25.38-51.55-52.18-15.77-26.8-15.8-41.89-5.57-44.87,7.63-2.22,20.59,19.46,34.74,46.9Z"/>
        <path class="cls-6" d="M178.84,333.42c17.17,29.88,35.55,52.61,25.87,55.43-9.68,2.82-23.66-29.25-41.19-59.03-17.53-29.78-29.07-43.14-22.28-48.8,7.69-6.42,10.43,5.12,37.6,52.4Z"/>
      </g>
      <g>
        <path class="cls-9" d="M145.12,267.15c14.15,27.44,28.28,48.6,22.38,50.15-10.37,2.72-35.78-25.38-51.55-52.18-15.77-26.8-15.8-41.89-5.57-44.87,7.63-2.22,20.59,19.46,34.74,46.9Z"/>
        <path class="cls-9" d="M181.05,332.11c17.17,29.88,35.55,52.61,25.87,55.43-9.68,2.82-23.66-29.25-41.19-59.03-17.53-29.78-29.07-43.14-22.28-48.8,7.69-6.42,10.43,5.12,37.6,52.4Z"/>
      </g>
    </g>
    <path class="cls-6" d="M449.28,278.11c-.35-1.05-.67-2.11-.95-3.19-.32-.72-.62-1.46-.9-2.21-.39-.7-.75-1.43-1.1-2.17-.32-.44-.64-.86-.94-1.32l-1.99-2.3c-1.89-2.18-4.1-3.53-6.39-4.09-.81,.1-1.62,.14-2.44,.12-.37,0-.73-.03-1.08-.06-.75,.34-1.5,.63-2.27,.89-.38,.69-.78,1.36-1.19,2.01-.19,.42-.41,.81-.62,1.22-.76,1.88-1.66,3.65-2.67,5.31-.1,.28-.19,.57-.3,.85-.71,2.52-1.66,4.9-2.8,7.1-.78,2.03-1.68,3.97-2.81,5.75-.36,.7-.73,1.38-1.11,2.03,0,.03-.01,.05-.02,.08,.19,.75,.36,1.51,.52,2.28l9.08,8.23c.59,.29,1.16,.61,1.72,.96,.37-.01,.77-.06,1.18-.12,1.83-2.35,3.92-4.36,6.15-5.95,.93-.86,1.9-1.63,2.9-2.33,1.02-1.47,2.14-2.84,3.33-4.07,.63-1.03,1.29-2.02,2-2.95,.44-.84,.9-1.66,1.4-2.44,.46-.95,.96-1.88,1.49-2.76-.06-.29-.12-.57-.17-.86Z"/>
    <g>
      <path class="cls-6" d="M443.46,269.52l-1-1.13c-2.82-3.2-7.92-1.75-11.35,3.21l-8.49,12.29s-.03,.06-.05,.09c-1.34,2.56-2.89,4.79-4.65,6.72l-58.42,84.59c-3.42,4.96-3.92,11.63-1.11,14.82l1,1.13c2.82,3.19,7.92,1.75,11.35-3.21l60.4-87.46c.76-1.28,1.6-2.48,2.49-3.61l8.71-12.61c3.42-4.96,3.92-11.63,1.11-14.82Z"/>
      <path class="cls-6" d="M437.99,279.99h0c.62,1,1.82,.78,2.67-.49l19.85-29.73c.85-1.27,3.31-6.35,2.69-7.35h0c-.62-1-4.09,2.43-4.94,3.71l-19.85,29.73c-.85,1.27-1.04,3.14-.42,4.14Z"/>
      <path class="cls-6" d="M433.72,274.76h0c.62,1,1.81,.79,2.65-.46l19.43-29.25c.83-1.25,3.23-6.26,2.61-7.26h0c-.62-1-4.04,2.37-4.87,3.62l-19.43,29.25c-.83,1.25-1.01,3.1-.38,4.1Z"/>
      <path class="cls-6" d="M451.87,234.53c-.76-1.1-4.09,1.97-4.86,3.17l-12.8,19.81c-.1,.19-.21,.37-.31,.55-.75,1.57-1.59,3.06-2.52,4.46-.24,.5-.51,.98-.77,1.46-.63,1.48-1.34,2.9-2.12,4.26,.06,.55,.23,1.06,.51,1.47,.76,1.1,2.01,1.02,2.78-.17l17.99-27.84c.77-1.19,2.86-6.06,2.1-7.16Z"/>
      <path class="cls-6" d="M444.49,287.26c.69-.91,1.41-1.78,2.16-2.61l18.85-29.25c.85-1.33,3.16-6.73,2.32-7.95-.84-1.22-4.53,2.19-5.38,3.52l-19.92,30.92c-.85,1.33-.86,3.41-.02,4.63,.54,.78,1.3,1.02,2,.75Z"/>
    </g>
    <path class="cls-9" d="M448.37,275.81c-.35-1.05-.67-2.11-.95-3.19-.32-.72-.62-1.46-.9-2.21-.39-.7-.75-1.43-1.1-2.17-.32-.44-.64-.86-.94-1.32l-1.99-2.3c-1.89-2.18-4.1-3.53-6.39-4.09-.81,.1-1.62,.14-2.44,.12-.37,0-.73-.03-1.08-.06-.75,.34-1.5,.63-2.27,.89-.38,.69-.78,1.36-1.19,2.01-.19,.42-.41,.81-.62,1.22-.76,1.88-1.66,3.65-2.67,5.31-.1,.28-.19,.57-.3,.85-.71,2.52-1.66,4.9-2.8,7.1-.78,2.03-1.68,3.97-2.81,5.75-.36,.7-.73,1.38-1.11,2.03,0,.03-.01,.05-.02,.08,.19,.75,.36,1.51,.52,2.28l9.08,8.23c.59,.29,1.16,.61,1.72,.96,.37-.01,.77-.06,1.18-.12,1.83-2.35,3.92-4.36,6.15-5.95,.93-.86,1.9-1.63,2.9-2.33,1.02-1.47,2.14-2.84,3.33-4.07,.63-1.03,1.29-2.02,2-2.95,.44-.84,.9-1.66,1.4-2.44,.46-.95,.96-1.88,1.49-2.76-.06-.29-.12-.57-.17-.86Z"/>
    <g>
      <path class="cls-9" d="M442.55,267.23l-1-1.13c-2.82-3.2-7.92-1.75-11.35,3.21l-8.49,12.29s-.03,.06-.05,.09c-1.34,2.56-2.89,4.79-4.65,6.72l-58.42,84.59c-3.42,4.96-3.92,11.63-1.11,14.82l1,1.13c2.82,3.19,7.92,1.75,11.35-3.21l60.4-87.46c.76-1.28,1.6-2.48,2.49-3.61l8.71-12.61c3.42-4.96,3.92-11.63,1.11-14.82Z"/>
      <path class="cls-9" d="M437.08,277.69h0c.62,1,1.82,.78,2.67-.49l19.85-29.73c.85-1.27,3.31-6.35,2.69-7.35h0c-.62-1-4.09,2.43-4.94,3.71l-19.85,29.73c-.85,1.27-1.04,3.14-.42,4.14Z"/>
      <path class="cls-9" d="M432.81,272.46h0c.62,1,1.81,.79,2.65-.46l19.43-29.25c.83-1.25,3.23-6.26,2.61-7.26h0c-.62-1-4.04,2.37-4.87,3.62l-19.43,29.25c-.83,1.25-1.01,3.1-.38,4.1Z"/>
      <path class="cls-9" d="M450.96,232.23c-.76-1.1-4.09,1.97-4.86,3.17l-12.8,19.81c-.1,.19-.21,.37-.31,.55-.75,1.57-1.59,3.06-2.52,4.46-.24,.5-.51,.98-.77,1.46-.63,1.48-1.34,2.9-2.12,4.26,.06,.55,.23,1.06,.51,1.47,.76,1.1,2.01,1.02,2.78-.17l17.99-27.84c.77-1.19,2.86-6.06,2.1-7.16Z"/>
      <path class="cls-9" d="M443.58,284.96c.69-.91,1.41-1.78,2.16-2.61l18.85-29.25c.85-1.33,3.16-6.73,2.32-7.95-.84-1.22-4.53,2.19-5.38,3.52l-19.92,30.92c-.85,1.33-.86,3.41-.02,4.63,.54,.78,1.3,1.02,2,.75Z"/>
    </g>
    <g>
      <rect class="cls-6" x="189.23" y="129" width="200.97" height="213" rx="46.96" ry="46.96"/>
      <ellipse class="cls-6" cx="202.44" cy="183" rx="59.44" ry="63"/>
      <ellipse class="cls-6" cx="288.77" cy="143.5" rx="63.69" ry="67.5"/>
      <ellipse class="cls-6" cx="366.61" cy="172" rx="60.39" ry="64"/>
    </g>
    <path class="cls-4" d="M322.5,318.41c.17-4.67,.6-9.27,1.32-13.81-2.42,5.37-5.53,14.67-8.41,24.24-.49,5.78-1.46,11.51-2.85,17.19-.19,1.64-.43,3.28-.69,4.91,1.87,0,3.74,.03,5.61,.1,.23-3.25,.61-6.47,1.11-9.65,.52-7.85,1.83-15.51,3.91-22.97Z"/>
    <path class="cls-4" d="M284.28,327.97c-.22-4.02-.23-7.99-.07-11.91-.1-.67-.2-1.35-.3-2.02-.17-3.05-.21-6.06-.15-9.06-.23-1.57-.46-3.15-.69-4.72-.2,.63-.41,1.25-.62,1.88-.17,3.45-.5,6.86-.97,10.23-.19,4.69-.66,9.31-1.4,13.87,.02,5-.28,9.92-.88,14.76,.36,2.49,.73,4.97,1.09,7.46,.05,.98,.09,1.96,.12,2.94,1.03,0,2.07,0,3.11,.01,1.4-.02,2.8,0,4.19,.02-3.59-35.92-7.7-77.75-3.43-23.46Z"/>
    <g>
      <g>
        <circle class="cls-7" cx="204" cy="185" r="59"/>
        <circle class="cls-7" cx="290" cy="144" r="63"/>
        <circle class="cls-7" cx="372.5" cy="173.5" r="59"/>
        <rect class="cls-7" x="195" y="185" width="190" height="166" rx="46.96" ry="46.96"/>
      </g>
      <path class="cls-12" d="M411.91,128.33c11.96,3.53,24.28,42.33,13.88,65.2-9.88,21.73-22.89,37.74-34.85,34.22s5.96-21.92,13.1-46.15c7.15-24.24-4.09-56.79,7.87-53.27Z"/>
      <path class="cls-11" d="M388,229c0,6.73-26.69,4.52-37.5,1.17-10.81-3.36-25.75-8.13-42.25-8.4-15.77-.25-29.52,4.38-42.25,8.4-10.81,3.36-17.5,5.03-17.5-1.7s22.69-20.06,33.5-24.47,9.5-11,26-11,31.69,13.83,42.5,18.24c10.81,4.41,37.5,11.03,37.5,17.76Z"/>
    </g>
    <path class="cls-1" d="M253.39,351.1c.17,0,.33,.01,.5,.01l-3.89-31.12c-.96-2.08-1.22-2.42-1.25-2.31-.11-.38-.31-1.04-.66-2.12-.14-.34-.28-.68-.42-1.02-.54,5.03,.88,26.57,2.74,36.72,.99-.11,1.98-.17,2.98-.17Z"/>
    <path class="cls-5" d="M249.73,350.39l-1.49-27.44c-.89-2.27-1.14-2.65-1.18-2.54-.09-.41-.26-1.12-.55-2.28-.13-.37-.25-.74-.38-1.11-.87,4.54-1.09,22.34-.32,33.99,1.29-.31,2.6-.51,3.91-.61Z"/>
    <path class="cls-2" d="M284.23,327.67c.18-4.22,.55-8.37,1.08-12.45-.03-.71-.05-1.42-.08-2.14,.14-3.2,.39-6.35,.73-9.48-.06-1.66-.12-3.33-.18-4.99-.24,.64-.5,1.27-.75,1.91-.48,3.59-1.11,7.12-1.86,10.61-.62,4.88-1.49,9.68-2.6,14.37-.46,5.22-1.21,10.34-2.21,15.35,.09,2.63,.19,5.25,.28,7.88-.05,1.03-.11,2.06-.18,3.08,.94,.08,1.88,.16,2.83,.27,1.28,.1,2.55,.23,3.81,.37,.15-37.83,.4-81.87-.88-24.79Z"/>
    <path class="cls-1" d="M323.87,323.74c-.32-3.76-.24-7.52,.27-11.3-2.97,4.84-6.5,12.97-9.65,21.25-.02,4.72-.77,9.5-2.16,14.34-.09,1.35-.23,2.71-.43,4.07,2.82-.44,5.63-.85,8.44-1.23-.06-2.64,.11-5.29,.48-7.94-.19-6.37,.83-12.77,3.05-19.19Z"/>
    <path class="cls-8" d="M264.8,76.07c-30.69,6.16-49.57,22.08-80.25,28.26-37,7.46-85.78,5.18-122.73,12.67-1.91,0-11.91-.09-20-3.44-5.13-2.12-8.32-5.04-8.32-8.26V33.19c0-6.43,12.75-11.69,28.32-11.69H503.18c15.58,0,28.32,5.26,28.32,11.69V105.31c-23-1.37-57.22-3.86-98.28-8.59-13.3-1.53-3.89,8.45-10.28,7.61-30.01-3.91-93.85-20.79-158.13-28.26Z"/>
    <path class="cls-10" d="M282.22,329.12c.05-3.85,.37-7.62,.94-11.33-.08-.65-.15-1.31-.23-1.96,.04-2.92,.24-5.79,.58-8.63-.18-1.53-.36-3.05-.54-4.58-.33,.57-.68,1.14-1.02,1.71-.53,3.26-1.28,6.45-2.22,9.6-.67,4.43-1.71,8.77-3.13,13.01-.41,4.75-1.25,9.39-2.5,13.92,.28,2.41,.57,4.82,.85,7.23-.01,.94-.05,1.88-.1,2.81,1.42,.12,2.85,.25,4.28,.4,1.94,.16,3.86,.35,5.77,.55-1.84-34.6-3.88-74.87-2.69-22.73Z"/>
    <path class="cls-3" d="M316.83,327.02c-.32-3.76,5.66-9.24,6.17-13.02-2.97,4.84-12.4,14.69-15.55,22.97-.02,4.72-.77,9.5-2.16,14.34-.09,1.35-.23,2.71-.43,4.07,2.82-.44,5.63-.85,8.44-1.23-.06-2.64,.11-5.29,.48-7.94-.19-6.37,.83-12.77,3.05-19.19Z"/>
  </g>
  <path class="cls-8" d="M531.8,341.61c0,29.55-111.48,53.5-249,53.5s-249-23.95-249-53.5,120.65,46.63,249,15.5c164.94-40,249-45.05,249-15.5Z"/>
</svg>