<?xml version="1.0" encoding="utf-8"?>
<!-- Generator: Adobe Illustrator 26.3.1, SVG Export Plug-In . SVG Version: 6.00 Build 0)  -->
<svg version="1.1" id="Calque_1" xmlns="http://www.w3.org/2000/svg" xmlns:xlink="http://www.w3.org/1999/xlink" x="0px" y="0px"
	 viewBox="0 0 510.12 284.78" style="enable-background:new 0 0 510.12 284.78;" xml:space="preserve">
<style type="text/css">
	.st0{opacity:0.86;fill:#1A1A1A;}
	.st1{fill:url(#SVGID_1_);}
	.st2{fill:#333333;}
	.st3{font-family:'MyriadPro-Regular';}
	.st4{font-size:100px;}
	.st5{opacity:0.17;fill:#FFFFFF;}
</style>
<g>
	<path class="st0" d="M449.26,272.04H61.21c-26.94,0-48.98-22.04-48.98-48.98V60.02c0-26.94,22.04-48.98,48.98-48.98h388.04
		c26.94,0,48.98,22.04,48.98,48.98v163.04C498.23,250,476.19,272.04,449.26,272.04z"/>
	<g>
		<linearGradient id="SVGID_1_" gradientUnits="userSpaceOnUse" x1="257.2343" y1="18.043" x2="257.2343" y2="251.043">
			<stop  offset="0.0358" style="stop-color:#B3B3B3"/>
			<stop  offset="0.4698" style="stop-color:#B3B3B3"/>
			<stop  offset="1" style="stop-color:#999999"/>
		</linearGradient>
		<path class="st1" d="M439.4,251.04H75.06c-25.21,0-45.83-20.62-45.83-45.83V63.87c0-25.21,20.62-45.83,45.83-45.83H439.4
			c25.21,0,45.83,20.62,45.83,45.83v141.34C485.23,230.42,464.61,251.04,439.4,251.04z"/>
	</g>
	<text transform="matrix(1 0 0 1 177.1677 164.1579)" class="st2 st3 st4">Oui</text>
	<path class="st5" d="M384,266.15c7.27-0.4,14.72-0.83,21.76-0.42c1.58,0.09,3.11,0.28,4.61,0.51c4.11,0.64,8.2,1.33,12.27,2.07
		l4.89-0.72c3.89-1.14,7.77-2.32,11.64-3.47c7.34-2.18,14.72-4.16,21.98-6.5c2.45-1.09,4.86-2.23,7.24-3.42
		c8.84-5.72,17.47-11.61,25.92-17.61l1.76-2.91c-0.53-1.92-18.05,12.46-21.01,13.28l-93.72,18c-0.79,0.22-0.04,0.68,1.5,1.27
		C383.23,266.21,383.61,266.18,384,266.15z"/>
	<path class="st5" d="M77.52,261.23c-6.78-1.23-15.41-2.41-16.81-3.49l-35.05-33.84c-1.77,1.34-3.57,2.65-5.43,3.91
		c-2.3,2.2-4.68,4.28-7.11,6.26l0.59,0.64c3.27,2.39,6.58,4.74,9.85,7.11c6.2,4.5,12.22,9.2,18.54,13.48
		c2.45,1.16,4.94,2.25,7.45,3.25c8.9,2.1,17.84,3.95,26.8,5.62C76.74,263.2,77.13,262.21,77.52,261.23z"/>
</g>
</svg>
