<?xml version="1.0" encoding="UTF-8"?>
<svg id="Calque_1" data-name="Calque 1" xmlns="http://www.w3.org/2000/svg" width="486" height="261" xmlns:xlink="http://www.w3.org/1999/xlink" viewBox="0 0 486 261">
  <defs>
    <style>
      .cls-1 {
        fill: url(#Dégradé_sans_nom_14);
      }

      .cls-2 {
        fill: #fff;
        opacity: .17;
      }

      .cls-3 {
        fill: #0000ab;
      }

      .cls-4 {
        fill: #1b1464;
        opacity: .86;
      }
    </style>
    <linearGradient id="Dégradé_sans_nom_14" data-name="Dégradé sans nom 14" x1="243" y1="5" x2="243" y2="238" gradientTransform="matrix(1, 0, 0, 1, 0, 0)" gradientUnits="userSpaceOnUse">
      <stop offset=".04" stop-color="#fff"/>
      <stop offset=".47" stop-color="#f2f2f2"/>
      <stop offset="1" stop-color="#b3b3b3"/>
    </linearGradient>
  </defs>
  <rect class="cls-4" width="486" height="261" rx="51.03" ry="51.03"/>
  <rect class="cls-1" x="15" y="5" width="456" height="233" rx="51.24" ry="51.24"/>
  <g>
    <path class="cls-3" d="M159.64,151.91c-3.2,1.6-9.6,3.2-17.8,3.2-19,0-33.3-12-33.3-34.1s14.3-35.4,35.2-35.4c8.4,0,13.7,1.8,16,3l-2.1,7.1c-3.3-1.6-8-2.8-13.6-2.8-15.8,0-26.3,10.1-26.3,27.8,0,16.5,9.5,27.1,25.9,27.1,5.3,0,10.7-1.1,14.2-2.8l1.8,6.9Z"/>
    <path class="cls-3" d="M196.33,154.11l-.7-6.1h-.3c-2.7,3.8-7.9,7.2-14.8,7.2-9.8,0-14.8-6.9-14.8-13.9,0-11.7,10.4-18.1,29.1-18v-1c0-4-1.1-11.2-11-11.2-4.5,0-9.2,1.4-12.6,3.6l-2-5.8c4-2.6,9.8-4.3,15.9-4.3,14.8,0,18.4,10.1,18.4,19.8v18.1c0,4.2,.2,8.3,.8,11.6h-8Zm-1.3-24.7c-9.6-.2-20.5,1.5-20.5,10.9,0,5.7,3.8,8.4,8.3,8.4,6.3,0,10.3-4,11.7-8.1,.3-.9,.5-1.9,.5-2.8v-8.4Z"/>
    <path class="cls-3" d="M217.73,118.81c0-5-.1-9.1-.4-13.1h7.8l.5,8h.2c2.4-4.6,8-9.1,16-9.1,6.7,0,17.1,4,17.1,20.6v28.9h-8.8v-27.9c0-7.8-2.9-14.3-11.2-14.3-5.8,0-10.3,4.1-11.8,9-.4,1.1-.6,2.6-.6,4.1v29.1h-8.8v-35.3Z"/>
    <path class="cls-3" d="M307.73,152.31c-2.3,1.2-7.4,2.8-13.9,2.8-14.6,0-24.1-9.9-24.1-24.7s10.2-25.7,26-25.7c5.2,0,9.8,1.3,12.2,2.5l-2,6.8c-2.1-1.2-5.4-2.3-10.2-2.3-11.1,0-17.1,8.2-17.1,18.3,0,11.2,7.2,18.1,16.8,18.1,5,0,8.3-1.3,10.8-2.4l1.5,6.6Z"/>
    <path class="cls-3" d="M322.33,131.51c.2,11.9,7.8,16.8,16.6,16.8,6.3,0,10.1-1.1,13.4-2.5l1.5,6.3c-3.1,1.4-8.4,3-16.1,3-14.9,0-23.8-9.8-23.8-24.4s8.6-26.1,22.7-26.1c15.8,0,20,13.9,20,22.8,0,1.8-.2,3.2-.3,4.1h-34Zm25.8-6.3c.1-5.6-2.3-14.3-12.2-14.3-8.9,0-12.8,8.2-13.5,14.3h25.7Z"/>
    <path class="cls-3" d="M367.53,83.11h8.8v71h-8.8V83.11Z"/>
  </g>
  <path class="cls-2" d="M65.29,248.19c-6.78-1.23-15.41-2.41-16.81-3.49L13.43,210.87c-1.77,1.34-3.57,2.65-5.43,3.91-2.3,2.2-4.68,4.28-7.11,6.26l.59,.64c3.27,2.39,6.58,4.74,9.85,7.11,6.2,4.5,12.22,9.2,18.54,13.48,2.45,1.16,4.94,2.25,7.45,3.25,8.9,2.1,17.84,3.95,26.8,5.62,.39-.98,.78-1.96,1.17-2.94Z"/>
  <path class="cls-2" d="M368.76,253.11c7.27-.4,14.72-.83,21.76-.42,1.58,.09,3.11,.28,4.61,.51,4.11,.64,8.2,1.33,12.26,2.07l4.89-.72c3.89-1.14,7.77-2.32,11.64-3.47,7.34-2.18,14.72-4.16,21.98-6.5,2.45-1.09,4.86-2.23,7.24-3.42,8.84-5.72,17.47-11.61,25.92-17.61l1.76-2.91c-.53-1.92-18.05,12.46-21.01,13.28l-93.72,18c-.79,.22-.04,.68,1.5,1.27,.39-.04,.77-.07,1.15-.09Z"/>
</svg>