<?xml version="1.0" encoding="UTF-8"?>
<svg id="Calque_1" data-name="Calque 1" xmlns="http://www.w3.org/2000/svg" width="486" height="261" xmlns:xlink="http://www.w3.org/1999/xlink" viewBox="0 0 486 261">
  <defs>
    <style>
      .cls-1 {
        opacity: .17;
      }

      .cls-1, .cls-2 {
        fill: #fff;
      }

      .cls-3 {
        fill: url(#Dégradé_sans_nom_15);
      }

      .cls-4 {
        letter-spacing: 0em;
      }

      .cls-5 {
        fill: #e6e6e6;
      }

      .cls-2 {
        font-family: MyriadPro-Regular, 'Myriad Pro';
        font-size: 133px;
      }

      .cls-6 {
        letter-spacing: 0em;
      }

      .cls-7 {
        letter-spacing: 0em;
      }
    </style>
    <linearGradient id="Dégradé_sans_nom_15" data-name="Dégradé sans nom 15" x1="245.5" y1="5.5" x2="245.5" y2="238.5" gradientTransform="matrix(1, 0, 0, 1, 0, 0)" gradientUnits="userSpaceOnUse">
      <stop offset=".04" stop-color="#ccc"/>
      <stop offset=".47" stop-color="#999"/>
      <stop offset=".99" stop-color="#999"/>
    </linearGradient>
  </defs>
  <rect class="cls-5" width="486" height="261" rx="51.03" ry="51.03"/>
  <rect class="cls-3" x="17.5" y="5.5" width="456" height="233" rx="51.24" ry="51.24"/>
  <path class="cls-1" d="M58.29,246.04c-5.43-.45-12.39-.66-13.42-1.53l-25.22-28.16c-1.59,1.45-3.21,2.86-4.86,4.24-2.12,2.31-4.28,4.51-6.48,6.62l.42,.54c2.43,1.91,4.9,3.77,7.34,5.66,4.62,3.58,9.06,7.38,13.8,10.74,1.89,.84,3.81,1.6,5.77,2.28,7.08,1.05,14.22,1.86,21.39,2.5,.42-.96,.84-1.93,1.27-2.89Z"/>
  <path class="cls-1" d="M373.17,254.58c7.27-.4,14.72-.83,21.76-.42,1.58,.09,3.11,.28,4.61,.51,4.11,.64,8.2,1.33,12.26,2.07l4.89-.72c3.89-1.14,7.77-2.32,11.64-3.47,7.34-2.18,14.72-4.16,21.98-6.5,2.45-1.09,4.86-2.23,7.24-3.42,8.84-5.72,17.47-11.61,25.92-17.61l1.76-2.91c-.53-1.92-18.05,12.46-21.01,13.28l-93.72,18c-.79,.22-.04,.68,1.5,1.27,.39-.04,.77-.07,1.15-.09Z"/>
  <text class="cls-2" transform="translate(78.97 160.95)"><tspan x="0" y="0">E</tspan><tspan class="cls-4" x="65.43" y="0">n</tspan><tspan class="cls-6" x="138.72" y="0">t</tspan><tspan class="cls-7" x="182.74" y="0">r</tspan><tspan x="224.9" y="0">er</tspan></text>
</svg>