<?xml version="1.0" encoding="UTF-8"?>
<svg id="Calque_1" data-name="Calque 1" xmlns="http://www.w3.org/2000/svg" width="486" height="261" xmlns:xlink="http://www.w3.org/1999/xlink" viewBox="0 0 486 261">
  <defs>
    <style>
      .cls-1 {
        fill: #fff;
        opacity: .17;
      }

      .cls-2 {
        fill: #0000ab;
      }

      .cls-3 {
        fill: #1b1464;
        opacity: .86;
      }

      .cls-4 {
        fill: url(#Dégradé_sans_nom_11);
      }
    </style>
    <linearGradient id="Dégradé_sans_nom_11" data-name="Dégradé sans nom 11" x1="245" y1="7" x2="245" y2="240" gradientTransform="matrix(1, 0, 0, 1, 0, 0)" gradientUnits="userSpaceOnUse">
      <stop offset=".04" stop-color="#b3b3b3"/>
      <stop offset=".47" stop-color="#b3b3b3"/>
      <stop offset="1" stop-color="#999"/>
    </linearGradient>
  </defs>
  <rect class="cls-3" width="486" height="261" rx="48.98" ry="48.98"/>
  <rect class="cls-4" x="17" y="7" width="456" height="233" rx="45.83" ry="45.83"/>
  <g>
    <path class="cls-2" d="M230.14,118.71c0,23.2-14.1,35.5-31.3,35.5s-30.3-13.8-30.3-34.2c0-21.4,13.3-35.4,31.3-35.4s30.3,14.1,30.3,34.1Zm-52.3,1.1c0,14.4,7.8,27.3,21.5,27.3s21.6-12.7,21.6-28c0-13.4-7-27.4-21.5-27.4s-21.6,13.3-21.6,28.1Z"/>
    <path class="cls-2" d="M281.93,139.91c0,5,.1,9.4,.4,13.2h-7.8l-.5-7.9h-.2c-2.3,3.9-7.4,9-16,9-7.6,0-16.7-4.2-16.7-21.2v-28.3h8.8v26.8c0,9.2,2.8,15.4,10.8,15.4,5.9,0,10-4.1,11.6-8,.5-1.3,.8-2.9,.8-4.5v-29.7h8.8v35.2Z"/>
    <path class="cls-2" d="M306.33,91.11c.1,3-2.1,5.4-5.6,5.4-3.1,0-5.3-2.4-5.3-5.4s2.3-5.5,5.5-5.5,5.4,2.4,5.4,5.5Zm-9.8,62v-48.4h8.8v48.4h-8.8Z"/>
  </g>
  <path class="cls-1" d="M371.76,255.11c7.27-.4,14.72-.83,21.76-.42,1.58,.09,3.11,.28,4.61,.51,4.11,.64,8.2,1.33,12.26,2.07l4.89-.72c3.89-1.14,7.77-2.32,11.64-3.47,7.34-2.18,14.72-4.16,21.98-6.5,2.45-1.09,4.86-2.23,7.24-3.42,8.84-5.72,17.47-11.61,25.92-17.61l1.76-2.91c-.53-1.92-18.05,12.46-21.01,13.28l-93.72,18c-.79,.22-.04,.68,1.5,1.27,.39-.04,.77-.07,1.15-.09Z"/>
  <path class="cls-1" d="M65.29,250.19c-6.78-1.23-15.41-2.41-16.81-3.49L13.43,212.87c-1.77,1.34-3.57,2.65-5.43,3.91-2.3,2.2-4.68,4.28-7.11,6.26l.59,.64c3.27,2.39,6.58,4.74,9.85,7.11,6.2,4.5,12.22,9.2,18.54,13.48,2.45,1.16,4.94,2.25,7.45,3.25,8.9,2.1,17.84,3.95,26.8,5.62,.39-.98,.78-1.96,1.17-2.94Z"/>
</svg>