<?xml version="1.0" encoding="UTF-8"?>
<svg id="Calque_1" data-name="Calque 1" xmlns="http://www.w3.org/2000/svg" width="245" height="245" viewBox="0 0 245 245">
  <defs>
    <style>
      .cls-1 {
        stroke-width: 10px;
      }

      .cls-1, .cls-2 {
        fill: #fff;
      }

      .cls-1, .cls-2, .cls-3, .cls-4 {
        stroke: #fff;
        stroke-miterlimit: 10;
      }

      .cls-5 {
        opacity: .1;
      }

      .cls-2 {
        stroke-width: 20px;
      }

      .cls-3 {
        fill: #666;
        stroke-width: 3px;
      }

      .cls-4 {
        fill: #f2f2f2;
        opacity: .14;
      }
    </style>
  </defs>
  <circle class="cls-3" cx="122.5" cy="122.5" r="121"/>
  <polygon class="cls-2" points="107.85 100.97 220.91 100.97 221.45 140.18 119.13 140.18 105.38 140.18 107.85 100.97"/>
  <polygon class="cls-1" points="16.91 113.18 96.91 58.97 96.91 172.5 16.91 113.18"/>
  <path class="cls-4" d="M100.81,45.31l17.19-9.15c4.24-.47,13.23-.28,20.91,.09,3.44-.94,6.96-1.73,10.56-2.38l11.5-4.81c26.41-8.5-15.67-20.09-26.61-18.87l-59.51,18.92c-10.94,1.23-9.57,11.12-7.63,15.84h0c1.95,4.72,22.65,1.57,33.59,.35Z"/>
  <path class="cls-4" d="M139.51,215.74c7.12-1.3,14.42-2.65,21.93-2.61,1.68,0,3.4,.17,5.11,.42,4.7,.67,9.42,1.43,14.14,2.27l4.45-1.61c3.1-2.19,6.15-4.45,9.23-6.65,5.83-4.18,11.85-8.05,17.48-12.47,1.67-1.98,3.26-4.04,4.77-6.18,4.63-10.06,8.92-20.36,12.94-30.83l-.43-4.86c-2.02-3.06-8.85,21.79-11.26,23.37l-81.99,37.48c-.64,.42,.48,1.1,2.51,1.93,.37-.09,.74-.18,1.11-.24Z"/>
  <path class="cls-5" d="M39.59,185.98c25.32,32.34,88.34,43.34,76.76,52.41-11.58,9.06-59.09-4.41-84.41-36.76C6.62,169.28-.65,121.34,10.93,112.28c11.58-9.06,3.34,41.36,28.66,73.7Z"/>
</svg>