<?xml version="1.0" encoding="UTF-8"?>
<svg id="Calque_1" data-name="Calque 1" xmlns="http://www.w3.org/2000/svg" width="556" height="419" xmlns:xlink="http://www.w3.org/1999/xlink" viewBox="0 0 556 419">
  <defs>
    <style>
      .cls-1, .cls-2, .cls-3, .cls-4, .cls-5, .cls-6, .cls-7 {
        fill: #754c24;
      }

      .cls-1, .cls-8 {
        opacity: .1;
      }

      .cls-9 {
        fill: #fff;
      }

      .cls-10 {
        stroke: #1a1a1a;
      }

      .cls-10, .cls-11, .cls-12, .cls-13, .cls-14 {
        fill: #1a1a1a;
      }

      .cls-10, .cls-15, .cls-16 {
        stroke-miterlimit: 10;
      }

      .cls-11, .cls-7 {
        opacity: .24;
      }

      .cls-2, .cls-14 {
        opacity: .19;
      }

      .cls-17, .cls-8 {
        fill: #e6e6e6;
      }

      .cls-15 {
        stroke: #000;
      }

      .cls-15, .cls-18 {
        fill: #666;
      }

      .cls-12, .cls-5 {
        opacity: .17;
      }

      .cls-13, .cls-3 {
        opacity: .58;
      }

      .cls-18, .cls-4 {
        opacity: .14;
      }

      .cls-16 {
        fill: url(#Dégradé_sans_nom_31);
        stroke: #754c24;
      }
    </style>
    <linearGradient id="Dégradé_sans_nom_31" data-name="Dégradé sans nom 31" x1="3221.55" y1="3865.06" x2="3496.55" y2="3865.06" gradientTransform="translate(-3076.55 -3646.06)" gradientUnits="userSpaceOnUse">
      <stop offset=".3" stop-color="#a67c52" stop-opacity=".9"/>
      <stop offset=".44" stop-color="#a47a50" stop-opacity=".93"/>
      <stop offset=".64" stop-color="#8c6239"/>
      <stop offset=".92" stop-color="#754c24"/>
    </linearGradient>
  </defs>
  <rect class="cls-15" x=".5" y=".5" width="555" height="418" rx="12" ry="12"/>
  <path class="cls-6" d="M165.03,35.12l246.77,1.81c5.09,.04,9.2,4.18,9.2,9.27V361.73c0,5.12-4.15,9.27-9.27,9.27H157.18c-5.07,0-9.2-4.08-9.26-9.15-1.34-104.68-5.73-311.86-2.91-315.85,5.74-8.15,10.06-10.95,20.03-10.88Z"/>
  <rect class="cls-9" x="159" y="45" width="260" height="315" rx="9.6" ry="9.6" transform="translate(578 405) rotate(180)"/>
  <rect class="cls-16" x="145" y="54" width="275" height="330" rx="11.19" ry="11.19" transform="translate(565 438) rotate(180)"/>
  <line class="cls-10" x1="230" y1="51.5" x2="385.5" y2="51.5"/>
  <line class="cls-10" x1="170.5" y1="47.5" x2="399.94" y2="47.79"/>
  <g>
    <g>
      <ellipse class="cls-6" cx="263.79" cy="221.52" rx="29.79" ry="28.63" transform="translate(-39.42 384.98) rotate(-68.35)"/>
      <ellipse class="cls-6" cx="300.89" cy="191.65" rx="31.81" ry="30.57" transform="translate(11.76 400.62) rotate(-68.35)"/>
      <ellipse class="cls-6" cx="343.21" cy="196.67" rx="29.79" ry="28.63" transform="translate(33.8 443.12) rotate(-68.35)"/>
      <path class="cls-6" d="M327.86,206.22l-45.93,10.96c-12.35,2.95-20.38,15.69-17.85,28.33l7.05,35.26c2.53,12.63,14.69,20.56,27.04,17.61l.45-.11c.63-.25,1.27-.46,1.92-.62,.2-.05,.4-.08,.6-.12,.24-.07,.49-.14,.74-.2,.67-.16,1.34-.26,2-.32l10.88-2.6c.83-.39,1.7-.7,2.59-.91s1.83-.33,2.72-.36l9.18-2.19c.63-.25,1.27-.46,1.92-.62s1.34-.26,2-.32l10.92-2.61c12.35-2.95,20.38-15.69,17.85-28.33l-7.05-35.26c-2.53-12.63-14.69-20.56-27.04-17.61Z"/>
    </g>
    <path class="cls-3" d="M333.06,290.04c.4-.09,.81-.17,1.21-.25-.21-1.62-.34-3.23-.41-4.85-.52-3.9-.64-7.79-.38-11.68-.38-2.3-.62-4.61-.72-6.91-.63,2.9-1.21,7.81-1.65,12.82,.33,2.89,.43,5.8,.32,8.73,.07,.79,.11,1.58,.14,2.37,.5-.1,1-.18,1.49-.22Z"/>
    <path class="cls-3" d="M316.48,293.76c.29-.09,.58-.17,.87-.24,.9-.21,1.79-.33,2.66-.36-1.77-5.8-3.62-11.9-5.02-16.42-.01-.09-.03-.18-.05-.27-.1-.28-.2-.56-.3-.84l-.06-.18c-.37-1.45-.68-2.9-.94-4.35-.26-.74-.53-1.49-.79-2.23-.03,.3-.07,.6-.1,.9-.02-.04-.03-.02-.01,.09h0c.26,1.71,.43,3.41,.54,5.12,.37,2.32,.6,4.63,.69,6.94,.5,2.44,.83,4.88,1.02,7.32,.42,1.17,.83,2.35,1.25,3.52,.08,.33,.16,.66,.24,.99Z"/>
    <path class="cls-4" d="M357.63,170.08c6.06,.36,15.75,17.94,13.01,30.31-2.6,11.76-7.25,21.07-13.31,20.71s.7-11.4,1.75-24.07c1.05-12.67-7.51-27.31-1.45-26.95Z"/>
    <path class="cls-1" d="M356.04,222.05c.66,3.29-12.31,5.26-17.81,4.85-5.5-.41-13.11-1.04-21.02,.71-7.56,1.67-13.68,5.51-19.37,8.93-4.84,2.88-7.87,4.46-8.53,1.17s8.88-12.4,13.62-15.79c4.74-3.39,3.47-6.46,11.35-8.35s16.5,3.15,22.1,4.07c5.6,.92,19,1.12,19.66,4.41Z"/>
    <path class="cls-3" d="M301.88,297.34c.4-.09,.79-.17,1.19-.22-.04-.31-.08-.61-.11-.92-.23-1.2-.25-.67-.22-.06l-5-15.08c-.66-.91-.82-1.05-.82-.99-.09-.18-.25-.47-.52-.96-.1-.15-.2-.3-.3-.45,.25,2.75,3.54,14.83,5.39,18.79,.14-.04,.27-.08,.41-.11Z"/>
    <path class="cls-2" d="M300.36,297.71c.06-.01,.12-.03,.17-.05,.22-.05,.43-.09,.65-.13,.23-.07,.46-.13,.69-.19,.07-.02,.13-.03,.2-.04,0-.3-.02-.59-.02-.89-.13-1.16-.2-.65-.24-.07l-3.84-14.63c-.63-.9-.78-1.04-.79-.99-.08-.17-.22-.46-.47-.95-.09-.15-.19-.3-.28-.45-.02,2.66,2.33,14.57,3.92,18.31,0,.03,0,.05,0,.07Z"/>
    <path class="cls-7" d="M314.28,294.66c.97-.5,1.98-.88,3.03-1.14-1.12-5.72-2.26-11.55-3.14-15.98,0-.1-.02-.19-.02-.29l-.22-.92-.04-.19c-.24-1.56-.43-3.1-.57-4.65-.19-.81-.38-1.61-.57-2.42-.05,.31-.1,.62-.16,.93-.02-.05-.03-.02-.02,.09h0c.12,1.81,.17,3.61,.15,5.4,.18,2.46,.24,4.9,.16,7.33,.29,2.61,.43,5.19,.44,7.76,.3,1.27,.6,2.55,.9,3.82,.01,.08,.02,.17,.04,.25Z"/>
    <path class="cls-5" d="M331.17,290.35c1.03-.24,2.04-.36,3.03-.36-.06-.56-.11-1.12-.15-1.68-.94-4.06-1.11-8.32-.55-12.79-.69-2.36-1.12-4.79-1.28-7.3-1.24,3.55-2.42,9.3-3.34,15.1,.47,2.43,.65,4.95,.58,7.56,.56-.21,1.13-.4,1.71-.54Z"/>
  </g>
  <path class="cls-8" d="M264.8,76.07c-30.69,6.16-49.57,22.08-80.25,28.26-37,7.46-85.78,5.18-122.73,12.67-1.91,0-11.91-.09-20-3.44-5.13-2.12-8.32-5.04-8.32-8.26V33.19c0-6.43,12.75-11.69,28.32-11.69H503.18c15.58,0,28.32,5.26,28.32,11.69V105.31c-23-1.37-57.22-3.86-98.28-8.59-13.3-1.53-3.89,8.45-10.28,7.61-30.01-3.91-93.85-20.79-158.13-28.26Z"/>
  <path class="cls-8" d="M530.32,353.66c0,29.55-111.48,53.5-249,53.5s-249-23.95-249-53.5,120.65,46.63,249,15.5c164.94-40,249-45.05,249-15.5Z"/>
  <g>
    <g>
      <ellipse class="cls-17" cx="264.8" cy="222.18" rx="27.36" ry="27.74" transform="translate(-16.13 20.79) rotate(-4.36)"/>
      <ellipse class="cls-17" cx="298.98" cy="193.87" rx="29.22" ry="29.62" transform="translate(-13.88 23.31) rotate(-4.36)"/>
      <ellipse class="cls-17" cx="339.4" cy="198.14" rx="27.36" ry="27.74" transform="translate(-14.09 26.39) rotate(-4.36)"/>
      <path class="cls-17" d="M343.59,283.04l-43.27,10.72c-11.63,2.88-23.49-4.41-26.36-16.21l-8-32.92c-2.87-11.79,4.3-23.8,15.94-26.68l43.27-10.72c11.63-2.88,23.49,4.41,26.36,16.21l8,32.92c2.87,11.79-4.3,23.8-15.94,26.68Z"/>
    </g>
    <path class="cls-18" d="M352.14,173.11c5.78,.28,15.63,16.62,13.49,28.23-2.04,11.03-7.21,21.18-12.98,20.9-5.78-.28,1.34-12.06,1.87-23.93,.53-11.86-8.15-25.48-2.37-25.2Z"/>
    <path class="cls-18" d="M351.55,221.83c.75,3.07-11.52,5.04-16.76,4.72-5.24-.33-12.5-.84-19.96,.88-7.13,1.64-12.81,5.29-18.09,8.55-4.5,2.74-7.32,4.25-8.07,1.18s7.99-11.69,12.37-14.91,3.06-6.08,10.49-7.92c7.43-1.84,15.8,2.78,21.16,3.59,5.36,.81,18.11,.85,18.86,3.93Z"/>
    <path class="cls-14" d="M309.56,291.79l-4.04-13.91c-.64-.91-.79-1.04-.79-.99-.08-.17-.23-.46-.48-.95-.09-.15-.19-.3-.28-.45,.09,2.46,2.42,12.82,4.09,17.35,.49-.37,1-.72,1.51-1.06Z"/>
    <path class="cls-11" d="M321.46,277.19c-.39-1.95-.68-3.88-.9-5.81-.09-.32-.18-.64-.27-.97-.29-1.48-.53-2.94-.72-4.41-.21-.75-.42-1.51-.63-2.26-.04,.32-.08,.64-.13,.96,.18,1.69,.29,3.38,.34,5.05,.26,2.3,.4,4.58,.43,6.85,.37,2.44,.6,4.85,.71,7.26,.33,1.19,.67,2.38,1,3.57,.09,.48,.18,.95,.26,1.43,.43-.07,.87-.14,1.3-.19,.59-.1,1.17-.18,1.76-.26-4.13-17.29-8.91-37.43-3.15-11.22Z"/>
    <path class="cls-12" d="M339.67,266.49c-.74-2.2-1.24-4.47-1.48-6.81-1.05,3.34-1.96,8.73-2.62,14.16,.67,2.83,.92,5.81,.81,8.92,.15,.82,.26,1.66,.34,2.5,1.6-.68,3.21-1.34,4.82-1.98-.42-1.58-.7-3.19-.87-4.83-1.04-3.79-1.36-7.78-.99-11.96Z"/>
  </g>
  <path class="cls-13" d="M339.43,267.93c-.43-2.15-.73-4.31-.9-6.46-.51,2.72-.91,7.31-1.17,12,.4,2.7,.59,5.42,.57,8.17,.09,.77,.16,1.55,.22,2.32,.84-.21,1.69-.39,2.54-.57-.25-1.51-.43-3.02-.54-4.54-.61-3.65-.85-7.29-.72-10.93Z"/>
  <path class="cls-13" d="M323,277.39c-.41-1.85-.71-3.69-.93-5.52-.1-.31-.19-.61-.29-.91-.31-1.4-.55-2.8-.76-4.19-.22-.71-.45-1.42-.67-2.14-.04,.31-.09,.61-.14,.92,.18,1.61,.29,3.22,.33,4.82,.27,2.19,.41,4.37,.41,6.54,.39,2.32,.62,4.62,.72,6.91,.35,1.12,.71,2.25,1.06,3.37,.1,.45,.19,.9,.28,1.36,.47-.08,.94-.16,1.42-.23,.64-.12,1.28-.22,1.92-.31-4.37-16.38-9.43-35.47-3.35-10.62Z"/>
  <path class="cls-13" d="M309.63,293.34c.49-.19,.99-.37,1.49-.53-.04-.41-.09-.82-.12-1.23-.18-1.14-.22-.64-.21-.07l-4.23-14.42c-.6-.89-.74-1.03-.74-.97-.08-.17-.22-.45-.46-.93-.09-.15-.18-.29-.27-.44,.15,2.62,2.91,14.36,4.52,18.04,.02,.24,.03,.41,.03,.55Z"/>
</svg>