<?xml version="1.0" encoding="UTF-8"?>
<svg id="Calque_1" data-name="Calque 1" xmlns="http://www.w3.org/2000/svg" width="486" height="260.77" xmlns:xlink="http://www.w3.org/1999/xlink" viewBox="0 0 486 260.77">
  <defs>
    <style>
      .cls-1 {
        fill: url(#Dégradé_sans_nom_14);
      }

      .cls-2 {
        fill: #fff;
        opacity: .17;
      }

      .cls-3 {
        fill: #0000ab;
      }

      .cls-4 {
        fill: #1b1464;
        opacity: .86;
      }
    </style>
    <linearGradient id="Dégradé_sans_nom_14" data-name="Dégradé sans nom 14" x1="244" y1="7.99" x2="244" y2="240.79" gradientTransform="matrix(1, 0, 0, 1, 0, 0)" gradientUnits="userSpaceOnUse">
      <stop offset=".04" stop-color="#fff"/>
      <stop offset=".47" stop-color="#f2f2f2"/>
      <stop offset="1" stop-color="#b3b3b3"/>
    </linearGradient>
  </defs>
  <rect class="cls-4" width="486" height="260.77" rx="51.03" ry="51.03"/>
  <rect class="cls-1" x="16" y="7.99" width="456" height="232.8" rx="51.24" ry="51.24"/>
  <g>
    <path class="cls-3" d="M85.2,154c-3.26,1.63-9.79,3.26-18.16,3.26-19.38,0-33.97-12.23-33.97-34.75s14.59-36.08,35.91-36.08c8.57,0,13.97,1.83,16.32,3.06l-2.14,7.24c-3.37-1.63-8.16-2.85-13.87-2.85-16.12,0-26.83,10.29-26.83,28.33,0,16.82,9.69,27.62,26.42,27.62,5.41,0,10.91-1.12,14.48-2.85l1.84,7.03Z"/>
    <path class="cls-3" d="M139.57,131.17c0,18.24-12.65,26.19-24.58,26.19-13.36,0-23.67-9.78-23.67-25.38,0-16.51,10.81-26.19,24.48-26.19s23.77,10.29,23.77,25.38Zm-39.17,.51c0,10.8,6.22,18.96,14.99,18.96s15-8.05,15-19.16c0-8.36-4.18-18.96-14.79-18.96s-15.2,9.78-15.2,19.16Z"/>
    <path class="cls-3" d="M150.89,120.26c0-5.1-.1-9.27-.41-13.35h7.96l.51,8.15h.2c2.45-4.69,8.16-9.27,16.32-9.27,6.83,0,17.44,4.08,17.44,20.99v29.45h-8.98v-28.43c0-7.95-2.96-14.57-11.42-14.57-5.92,0-10.51,4.18-12.04,9.17-.41,1.12-.61,2.65-.61,4.18v29.66h-8.98v-35.98Z"/>
    <path class="cls-3" d="M208.42,156.24v-42.5h-6.94v-6.83h6.94v-2.65c0-13.05,7.65-21.5,21.52-21.5,4.59,0,10,1.43,12.55,3.26l-2.55,6.83c-2.14-1.53-6.02-2.85-10.4-2.85-9.49,0-12.24,6.62-12.24,14.47v2.45h28.66v49.33h-8.87v-42.5h-19.79v42.5h-8.87Z"/>
    <path class="cls-3" d="M260.84,122.3c0-5.81-.1-10.8-.41-15.39h7.85l.31,9.68h.41c2.24-6.62,7.65-10.8,13.67-10.8,1.02,0,1.73,.1,2.55,.31v8.46c-.92-.2-1.84-.31-3.06-.31-6.32,0-10.81,4.79-12.04,11.52-.2,1.22-.41,2.65-.41,4.18v26.29h-8.87v-33.94Z"/>
    <path class="cls-3" d="M294.6,120.26c0-5.1-.1-9.27-.41-13.35h7.85l.41,7.95h.31c2.75-4.69,7.34-9.07,15.5-9.07,6.73,0,11.83,4.08,13.97,9.89h.2c1.53-2.75,3.47-4.89,5.51-6.42,2.96-2.24,6.22-3.47,10.91-3.47,6.53,0,16.22,4.28,16.22,21.4v29.05h-8.77v-27.92c0-9.48-3.47-15.19-10.71-15.19-5.1,0-9.08,3.77-10.61,8.15-.41,1.22-.71,2.85-.71,4.48v30.47h-8.77v-29.56c0-7.85-3.47-13.55-10.3-13.55-5.61,0-9.69,4.48-11.12,8.97-.51,1.33-.71,2.85-.71,4.38v29.76h-8.77v-35.98Z"/>
    <path class="cls-3" d="M384.67,133.21c.2,12.13,7.96,17.12,16.93,17.12,6.43,0,10.3-1.12,13.67-2.55l1.53,6.42c-3.16,1.43-8.57,3.06-16.42,3.06-15.2,0-24.28-9.99-24.28-24.87s8.77-26.6,23.16-26.6c16.12,0,20.4,14.17,20.4,23.24,0,1.83-.2,3.26-.31,4.18h-34.68Zm26.32-6.42c.1-5.71-2.35-14.57-12.44-14.57-9.08,0-13.06,8.36-13.77,14.57h26.21Z"/>
    <path class="cls-3" d="M430.77,122.3c0-5.81-.1-10.8-.41-15.39h7.85l.31,9.68h.41c2.24-6.62,7.65-10.8,13.67-10.8,1.02,0,1.73,.1,2.55,.31v8.46c-.92-.2-1.84-.31-3.06-.31-6.32,0-10.81,4.79-12.04,11.52-.2,1.22-.41,2.65-.41,4.18v26.29h-8.87v-33.94Z"/>
  </g>
  <path class="cls-2" d="M66.7,251.73c-6.31-2.05-14.27-4.39-15.72-5.38l-37.45-29.66c-1.35,.62-2.74,1.21-4.19,1.75-1.68,1.12-3.45,2.14-5.28,3.09l.64,.55c3.36,2.24,6.74,4.45,10.1,6.67,6.36,4.21,12.6,8.54,19.03,12.62,2.41,1.24,4.83,2.43,7.27,3.57,8.36,3.03,16.72,5.89,25.07,8.63l.53-1.84Z"/>
  <path class="cls-2" d="M379.6,248.31c6.28,.54,12.71,1.07,18.81,2.54,1.37,.33,2.7,.76,4.01,1.25,3.57,1.33,7.13,2.73,10.67,4.17l4.21-.17c3.33-.81,6.65-1.66,9.97-2.48,6.29-1.55,12.61-2.88,18.83-4.62,2.09-.95,4.14-1.96,6.16-3.04,7.49-5.55,14.78-11.31,21.92-17.24l1.44-3.2c-.51-2.34-15.26,12.24-17.8,12.8l-80.56,8.24c-.67,.15-.01,.8,1.33,1.72,.33,.01,.67,.03,.99,.06Z"/>
</svg>