<?xml version="1.0" encoding="utf-8"?>
<!-- Generator: Adobe Illustrator 26.3.1, SVG Export Plug-In . SVG Version: 6.00 Build 0)  -->
<svg version="1.1" id="Calque_1" xmlns="http://www.w3.org/2000/svg" xmlns:xlink="http://www.w3.org/1999/xlink" x="0px" y="0px"
	 viewBox="0 0 510.12 284.78" style="enable-background:new 0 0 510.12 284.78;" xml:space="preserve">
<style type="text/css">
	.st0{fill:#333333;}
	.st1{fill:url(#SVGID_1_);}
	.st2{font-family:'MyriadPro-Regular';}
	.st3{font-size:133px;}
	.st4{opacity:0.17;fill:#FFFFFF;}
</style>
<g>
	<path class="st0" d="M447.31,274.52H63.37c-28.07,0-51.03-22.96-51.03-51.03V64.55c0-28.07,22.96-51.03,51.03-51.03h383.94
		c28.07,0,51.03,22.96,51.03,51.03v158.94C498.34,251.56,475.38,274.52,447.31,274.52z"/>
	<linearGradient id="SVGID_1_" gradientUnits="userSpaceOnUse" x1="257.841" y1="19.0217" x2="257.841" y2="252.0217">
		<stop  offset="0.0358" style="stop-color:#FFFFFF"/>
		<stop  offset="0.4698" style="stop-color:#F2F2F2"/>
		<stop  offset="1" style="stop-color:#B3B3B3"/>
	</linearGradient>
	<path class="st1" d="M434.61,252.02H81.08c-28.18,0-51.24-23.06-51.24-51.24V70.26c0-28.18,23.06-51.24,51.24-51.24h353.53
		c28.18,0,51.24,23.06,51.24,51.24v130.53C485.84,228.97,462.79,252.02,434.61,252.02z"/>
	<text transform="matrix(1 0 0 1 88.6547 177.0363)" class="st0 st2 st3">Entrer</text>
	<path class="st4" d="M370.17,267.11c7.28,0.11,14.74,0.21,21.74,1.11c1.57,0.2,3.09,0.49,4.57,0.83c4.06,0.93,8.09,1.91,12.09,2.93
		l4.93-0.38c3.96-0.87,7.91-1.77,11.86-2.64c7.48-1.65,14.97-3.12,22.38-4.94c2.52-0.92,5.01-1.88,7.46-2.91
		c9.22-5.09,18.24-10.36,27.1-15.75l1.96-2.77c-0.39-1.95-18.88,11.16-21.89,11.77l-94.75,11.38c-0.8,0.16-0.09,0.67,1.4,1.37
		C369.41,267.11,369.79,267.1,370.17,267.11z"/>
	<path class="st4" d="M78.54,262.51c-6.78-1.23-15.41-2.41-16.81-3.49l-35.05-33.84c-1.77,1.34-3.57,2.65-5.43,3.91
		c-2.3,2.2-4.68,4.28-7.11,6.26l0.59,0.64c3.27,2.39,6.58,4.74,9.85,7.11c6.2,4.5,12.22,9.2,18.54,13.48
		c2.45,1.16,4.94,2.25,7.45,3.25c8.9,2.1,17.84,3.95,26.8,5.62C77.76,264.47,78.15,263.49,78.54,262.51z"/>
</g>
</svg>
