<?xml version="1.0" encoding="UTF-8"?>
<svg id="Calque_1" data-name="Calque 1" xmlns="http://www.w3.org/2000/svg" width="486" height="261" xmlns:xlink="http://www.w3.org/1999/xlink" viewBox="0 0 486 261">
  <defs>
    <style>
      .cls-1, .cls-2 {
        fill: #fff;
      }

      .cls-2 {
        opacity: .17;
      }

      .cls-3 {
        fill: url(#Dégradé_sans_nom_15);
      }

      .cls-4 {
        fill: #e6e6e6;
      }
    </style>
    <linearGradient id="Dégradé_sans_nom_15" data-name="Dégradé sans nom 15" x1="245.5" y1="5.5" x2="245.5" y2="238.5" gradientTransform="matrix(1, 0, 0, 1, 0, 0)" gradientUnits="userSpaceOnUse">
      <stop offset=".04" stop-color="#ccc"/>
      <stop offset=".47" stop-color="#999"/>
      <stop offset=".99" stop-color="#999"/>
    </linearGradient>
  </defs>
  <rect class="cls-4" width="486" height="261" rx="51.03" ry="51.03"/>
  <rect class="cls-3" x="17.5" y="5.5" width="456" height="233" rx="51.24" ry="51.24"/>
  <path class="cls-2" d="M58.29,246.04c-5.43-.45-12.39-.66-13.42-1.53l-25.22-28.16c-1.59,1.45-3.21,2.86-4.86,4.24-2.12,2.31-4.28,4.51-6.48,6.62l.42,.54c2.43,1.91,4.9,3.77,7.34,5.66,4.62,3.58,9.06,7.38,13.8,10.74,1.89,.84,3.81,1.6,5.77,2.28,7.08,1.05,14.22,1.86,21.39,2.5,.42-.96,.84-1.93,1.27-2.89Z"/>
  <g>
    <path class="cls-1" d="M80.88,83.14c4.4-.9,10.7-1.4,16.7-1.4,9.3,0,15.3,1.7,19.5,5.5,3.4,3,5.3,7.6,5.3,12.8,0,8.9-5.6,14.8-12.7,17.2v.3c5.2,1.8,8.3,6.6,9.9,13.6,2.2,9.4,3.8,15.9,5.2,18.5h-9c-1.1-1.9-2.6-7.7-4.5-16.1-2-9.3-5.6-12.8-13.5-13.1h-8.2v29.2h-8.7V83.14Zm8.7,30.7h8.9c9.3,0,15.2-5.1,15.2-12.8,0-8.7-6.3-12.5-15.5-12.6-4.2,0-7.2,.4-8.6,.8v24.6Z"/>
    <path class="cls-1" d="M162.38,149.64l-.7-6.1h-.3c-2.7,3.8-7.9,7.2-14.8,7.2-9.8,0-14.8-6.9-14.8-13.9,0-11.7,10.4-18.1,29.1-18v-1c0-4-1.1-11.2-11-11.2-4.5,0-9.2,1.4-12.6,3.6l-2-5.8c4-2.6,9.8-4.3,15.9-4.3,14.8,0,18.4,10.1,18.4,19.8v18.1c0,4.2,.2,8.3,.8,11.6h-8Zm-1.3-24.7c-9.6-.2-20.5,1.5-20.5,10.9,0,5.7,3.8,8.4,8.3,8.4,6.3,0,10.3-4,11.7-8.1,.3-.9,.5-1.9,.5-2.8v-8.4Z"/>
    <path class="cls-1" d="M183.78,117.04c0-6.2-.2-11.2-.4-15.8h7.9l.4,8.3h.2c3.6-5.9,9.3-9.4,17.2-9.4,11.7,0,20.5,9.9,20.5,24.6,0,17.4-10.6,26-22,26-6.4,0-12-2.8-14.9-7.6h-.2v26.3h-8.7v-52.4Zm8.7,12.9c0,1.3,.2,2.5,.4,3.6,1.6,6.1,6.9,10.3,13.2,10.3,9.3,0,14.7-7.6,14.7-18.7,0-9.7-5.1-18-14.4-18-6,0-11.6,4.3-13.3,10.9-.3,1.1-.6,2.4-.6,3.6v8.3Z"/>
    <path class="cls-1" d="M240.68,117.04c0-6.2-.2-11.2-.4-15.8h7.9l.4,8.3h.2c3.6-5.9,9.3-9.4,17.2-9.4,11.7,0,20.5,9.9,20.5,24.6,0,17.4-10.6,26-22,26-6.4,0-12-2.8-14.9-7.6h-.2v26.3h-8.7v-52.4Zm8.7,12.9c0,1.3,.2,2.5,.4,3.6,1.6,6.1,6.9,10.3,13.2,10.3,9.3,0,14.7-7.6,14.7-18.7,0-9.7-5.1-18-14.4-18-6,0-11.6,4.3-13.3,10.9-.3,1.1-.6,2.4-.6,3.6v8.3Z"/>
    <path class="cls-1" d="M341.38,125.04c0,17.9-12.4,25.7-24.1,25.7-13.1,0-23.2-9.6-23.2-24.9,0-16.2,10.6-25.7,24-25.7s23.3,10.1,23.3,24.9Zm-38.4,.5c0,10.6,6.1,18.6,14.7,18.6s14.7-7.9,14.7-18.8c0-8.2-4.1-18.6-14.5-18.6s-14.9,9.6-14.9,18.8Z"/>
    <path class="cls-1" d="M352.48,116.34c0-5.7-.1-10.6-.4-15.1h7.7l.3,9.5h.4c2.2-6.5,7.5-10.6,13.4-10.6,1,0,1.7,.1,2.5,.3v8.3c-.9-.2-1.8-.3-3-.3-6.2,0-10.6,4.7-11.8,11.3-.2,1.2-.4,2.6-.4,4.1v25.8h-8.7v-33.3Z"/>
    <path class="cls-1" d="M398.17,87.34v13.9h12.6v6.7h-12.6v26.1c0,6,1.7,9.4,6.6,9.4,2.3,0,4-.3,5.1-.6l.4,6.6c-1.7,.7-4.4,1.2-7.8,1.2-4.1,0-7.4-1.3-9.5-3.7-2.5-2.6-3.4-6.9-3.4-12.6v-26.4h-7.5v-6.7h7.5v-11.6l8.6-2.3Z"/>
  </g>
  <path class="cls-2" d="M373.17,254.58c7.27-.4,14.72-.83,21.76-.42,1.58,.09,3.11,.28,4.61,.51,4.11,.64,8.2,1.33,12.26,2.07l4.89-.72c3.89-1.14,7.77-2.32,11.64-3.47,7.34-2.18,14.72-4.16,21.98-6.5,2.45-1.09,4.86-2.23,7.24-3.42,8.84-5.72,17.47-11.61,25.92-17.61l1.76-2.91c-.53-1.92-18.05,12.46-21.01,13.28l-93.72,18c-.79,.22-.04,.68,1.5,1.27,.39-.04,.77-.07,1.15-.09Z"/>
</svg>