<?xml version="1.0" encoding="utf-8"?>
<!-- Generator: Adobe Illustrator 26.3.1, SVG Export Plug-In . SVG Version: 6.00 Build 0)  -->
<svg version="1.1" id="Calque_1" xmlns="http://www.w3.org/2000/svg" xmlns:xlink="http://www.w3.org/1999/xlink" x="0px" y="0px"
	 viewBox="0 0 510.12 284.78" style="enable-background:new 0 0 510.12 284.78;" xml:space="preserve">
<style type="text/css">
	.st0{opacity:0.86;fill:#1A1A1A;}
	.st1{fill:url(#SVGID_1_);}
	.st2{fill:#333333;}
	.st3{font-family:'MyriadPro-Regular';}
	.st4{font-size:102px;}
	.st5{opacity:0.17;fill:#FFFFFF;}
</style>
<g>
	<g>
		<path class="st0" d="M447.2,274.04H63.26c-28.07,0-51.03-22.96-51.03-51.03V64.07c0-28.07,22.96-51.03,51.03-51.03H447.2
			c28.07,0,51.03,22.96,51.03,51.03v158.94C498.23,251.08,475.27,274.04,447.2,274.04z"/>
		<linearGradient id="SVGID_1_" gradientUnits="userSpaceOnUse" x1="256.2343" y1="21.043" x2="256.2343" y2="254.043">
			<stop  offset="0.0358" style="stop-color:#FFFFFF"/>
			<stop  offset="0.4698" style="stop-color:#F2F2F2"/>
			<stop  offset="1" style="stop-color:#B3B3B3"/>
		</linearGradient>
		<path class="st1" d="M433,254.04H79.47c-28.18,0-51.24-23.06-51.24-51.24V72.28c0-28.18,23.06-51.24,51.24-51.24H433
			c28.18,0,51.24,23.06,51.24,51.24v130.53C484.23,230.99,461.18,254.04,433,254.04z"/>
		<text transform="matrix(1 0 0 1 41.6412 169.4192)" class="st2 st3 st4">Confirmer</text>
	</g>
	<path class="st5" d="M78.94,264.99c-6.31-2.05-14.27-4.39-15.72-5.39l-37.45-29.68c-1.35,0.62-2.74,1.21-4.19,1.75
		c-1.68,1.12-3.45,2.14-5.28,3.09l0.64,0.55c3.36,2.24,6.74,4.45,10.1,6.68c6.36,4.22,12.6,8.54,19.03,12.63
		c2.41,1.24,4.83,2.43,7.27,3.57c8.36,3.03,16.72,5.89,25.07,8.63C78.58,266.22,78.76,265.6,78.94,264.99z"/>
	<path class="st5" d="M391.83,261.57c6.28,0.54,12.71,1.07,18.81,2.54c1.37,0.33,2.7,0.76,4.01,1.25c3.57,1.34,7.13,2.73,10.67,4.17
		l4.21-0.17c3.33-0.81,6.65-1.67,9.97-2.48c6.29-1.55,12.61-2.88,18.83-4.63c2.09-0.95,4.14-1.96,6.16-3.05
		c7.49-5.55,14.78-11.32,21.92-17.26l1.44-3.2c-0.51-2.34-15.26,12.25-17.8,12.81l-80.56,8.25c-0.67,0.15-0.01,0.8,1.33,1.72
		C391.17,261.52,391.5,261.54,391.83,261.57z"/>
</g>
</svg>
