<?xml version="1.0" encoding="UTF-8"?>
<svg id="Calque_1" data-name="Calque 1" xmlns="http://www.w3.org/2000/svg" width="556" height="419" viewBox="0 0 556 419">
  <defs>
    <style>
      .cls-1 {
        fill: #c7b299;
      }

      .cls-2 {
        stroke: #000;
      }

      .cls-2, .cls-3, .cls-4, .cls-5 {
        stroke-miterlimit: 10;
      }

      .cls-2, .cls-5 {
        fill: #666;
      }

      .cls-3, .cls-4 {
        stroke-width: 4px;
      }

      .cls-3, .cls-5 {
        stroke: #666;
      }

      .cls-3, .cls-6 {
        fill: #f2f2f2;
      }

      .cls-7 {
        fill: #999;
      }

      .cls-4 {
        fill: none;
        stroke: #c7b299;
      }

      .cls-8 {
        fill: #e6e6e6;
        opacity: .1;
      }
    </style>
  </defs>
  <rect class="cls-2" x=".5" y=".5" width="555" height="418" rx="12" ry="12"/>
  <circle class="cls-3" cx="339" cy="343" r="24"/>
  <circle class="cls-3" cx="224" cy="346" r="24"/>
  <path class="cls-7" d="M82.5,48.92s11.65-14.06,53.17,11.05c41.52,25.11,27.32,38.94,29.21,39.06s309.62,0,309.62,0l-49.24,128.66s-111.73,2.68-146.76,16.4c-35.03,13.73-83.32,23.77-101.31,35.82s234.51,0,234.51,0c0,0,14.52,9.04,2.21,17.07-12.31,8.03-249.02,14.06-249.02,14.06,0,0-26.51-23.1-16.1-31.13,10.42-8.03,34.09-22.54,54.92-41.4,20.83-18.86-27.46-84.14-38.82-103.22-11.36-19.08-38.59-52.33-51.02-55.79-12.42-3.46-31.36-5.69-31.36-5.58s0-25,0-25Z"/>
  <path class="cls-6" d="M93,48.91s11.41-14,52.08,11c40.67,25.01,26.76,38.79,28.61,38.9,1.86,.11,303.3,0,303.3,0l-50,129.18s-107.68,1.64-142,15.31c-34.32,13.67-81.62,23.67-99.25,35.68-17.62,12,229.72,0,229.72,0,0,0,14.22,9,2.16,17.01-12.06,8-243.94,14-243.94,14,0,0-25.97-23.01-15.77-31.01s33.39-22.45,53.8-41.24c20.41-18.78-26.9-83.81-38.03-102.81s-37.81-52.13-49.98-55.57c-12.17-3.45-30.72-5.67-30.72-5.56s0-24.9,0-24.9Z"/>
  <circle class="cls-1" cx="224" cy="346" r="12"/>
  <circle class="cls-1" cx="339" cy="343" r="12"/>
  <path class="cls-5" d="M424.58,223.56l-209.44,3.94c-5.97-11.15-3.91-22.34-9.88-33.49-10.62-19.84-22.97-38.28-33.59-58.11-6.79-12.68-19.89-26.72-26.67-39.4H472l-47.42,127.06Z"/>
  <g>
    <path class="cls-4" d="M302.8,96.71l173.2-1.04c-57.55,0-115.37,.52-173.2,1.04Z"/>
    <g>
      <path class="cls-4" d="M212.01,229.17v.02c72.16-1.48,142.89-3.44,214.8-5.96l-214.8,5.94Z"/>
      <line class="cls-4" x1="361.35" y1="226.16" x2="376.83" y2="95.23"/>
      <line class="cls-4" x1="319" y1="226.22" x2="330.82" y2="94.66"/>
      <line class="cls-4" x1="403.41" y1="223.7" x2="422.57" y2="96.67"/>
      <line class="cls-4" x1="462.95" y1="123.42" x2="165.54" y2="129.5"/>
      <line class="cls-4" x1="436.68" y1="194.46" x2="206.82" y2="199.5"/>
      <line class="cls-4" x1="234.45" y1="229.66" x2="240.09" y2="96.64"/>
      <line class="cls-4" x1="451.8" y1="156.24" x2="186.89" y2="162.2"/>
      <path class="cls-4" d="M473.98,97.65c-11.09,31.77-24.2,62.56-36.29,94.35-4.03,10.93-7.06,21.85-11.91,32.64"/>
      <line class="cls-4" x1="276.97" y1="228.28" x2="282.43" y2="94.66"/>
      <line class="cls-4" x1="189.19" y1="160.26" x2="191.24" y2="94.71"/>
      <path class="cls-4" d="M144.73,97.72c4.28,7.82,9.62,15.06,14.59,22.46,5.32,7.94,9.63,16.33,14.52,24.52,11.27,18.86,25.77,36.5,32.33,57.69,2.69,8.68,3.98,17.71,6.7,26.37"/>
      <path class="cls-4" d="M144,97.66h0c52.8-.02,105.8-.48,158.8-.95l-158.8,.95Z"/>
    </g>
  </g>
  <path class="cls-8" d="M262.8,73.07c-30.69,6.16-49.57,22.08-80.25,28.26-37,7.46-85.78,5.18-122.73,12.67-1.91,0-11.91-.09-20-3.44-5.13-2.12-8.32-5.04-8.32-8.26V30.19c0-6.43,12.75-11.69,28.32-11.69H501.18c15.58,0,28.32,5.26,28.32,11.69V102.31c-23-1.37-57.22-3.86-98.28-8.59-13.3-1.53-3.89,8.45-10.28,7.61-30.01-3.91-93.85-20.79-158.13-28.26Z"/>
  <path class="cls-8" d="M529,342c0,29.55-111.48,53.5-249,53.5s-249-23.95-249-53.5,120.65,46.63,249,15.5c164.94-40,249-45.05,249-15.5Z"/>
</svg>