<?xml version="1.0" encoding="UTF-8"?><svg id="Calque_1" xmlns="http://www.w3.org/2000/svg" xmlns:xlink="http://www.w3.org/1999/xlink" viewBox="0 0 486 261"><defs><style>.cls-1{fill:url(#Dégradé_sans_nom_14);}.cls-2{fill:#fff;opacity:.17;}.cls-3{fill:#1a1a1a;opacity:.86;}.cls-4{letter-spacing:-.02em;}.cls-5{fill:#333;font-family:MyriadPro-Regular, 'Myriad Pro';font-size:133px;}</style><linearGradient id="Dégradé_sans_nom_14" x1="244" y1="5" x2="244" y2="238" gradientTransform="matrix(1, 0, 0, 1, 0, 0)" gradientUnits="userSpaceOnUse"><stop offset=".04" stop-color="#fff"/><stop offset=".47" stop-color="#f2f2f2"/><stop offset="1" stop-color="#b3b3b3"/></linearGradient></defs><rect class="cls-3" width="486" height="261" rx="51.03" ry="51.03"/><rect class="cls-1" x="16" y="5" width="456" height="233" rx="51.24" ry="51.24"/><path class="cls-2" d="M364.02,250.99c7.35,.3,14.88,.6,21.99,1.85,1.59,.28,3.14,.67,4.66,1.11,4.15,1.21,8.27,2.48,12.37,3.8l4.95-.34c3.94-.94,7.87-1.93,11.8-2.88,7.44-1.8,14.92-3.38,22.28-5.38,2.49-1.04,4.94-2.14,7.35-3.3,9-5.88,17.79-11.98,26.39-18.23l1.82-3.28c-.51-2.34-18.37,12.93-21.38,13.59l-94.89,11.37c-.8,.17-.05,.8,1.5,1.68,.39,0,.78,0,1.17,.02Z"/><path class="cls-2" d="M67.29,255.19c-6.78-1.23-15.41-2.41-16.81-3.49L15.43,217.87c-1.77,1.34-3.57,2.65-5.43,3.91-2.3,2.2-4.68,4.28-7.11,6.26l.59,.64c3.27,2.39,6.58,4.74,9.85,7.11,6.2,4.5,12.22,9.2,18.54,13.48,2.45,1.16,4.94,2.25,7.45,3.25,8.9,2.1,17.84,3.95,26.8,5.62,.39-.98,.78-1.96,1.17-2.94Z"/><text class="cls-5" transform="translate(44.23 164.64)"><tspan class="cls-4" x="0" y="0">P</tspan><tspan x="68.76" y="0">ublier</tspan></text></svg>