<?xml version="1.0" encoding="UTF-8"?>
<svg id="Calque_1" data-name="Calque 1" xmlns="http://www.w3.org/2000/svg" width="556" height="419" viewBox="0 0 556 419">
  <defs>
    <style>
      .cls-1 {
        fill: #f7c6a5;
      }

      .cls-2 {
        fill: #ffd4c9;
      }

      .cls-3 {
        fill: #a67c52;
      }

      .cls-4 {
        fill: #c69c6d;
        stroke-width: 6px;
      }

      .cls-4, .cls-5, .cls-6 {
        stroke-miterlimit: 10;
      }

      .cls-4, .cls-6 {
        stroke: #42210b;
      }

      .cls-7 {
        fill: #603813;
      }

      .cls-8 {
        fill: #fbb669;
      }

      .cls-5 {
        fill: #1b1464;
        stroke: #000;
      }

      .cls-9 {
        fill: #edd1a2;
      }

      .cls-10 {
        fill: #ffffc3;
      }

      .cls-11 {
        fill: #e6e6e6;
        opacity: .1;
      }

      .cls-6 {
        fill: #d4a259;
        stroke-width: 8px;
      }
    </style>
  </defs>
  <rect class="cls-5" x=".5" y=".5" width="555" height="418" rx="12" ry="12"/>
  <path class="cls-6" d="M484.82,312.38c-9.8-3.06-19.18-7.1-28.15-12.07-4.41-1.46-8.74-3.12-12.98-4.97-5.21-.32-10.45-.98-15.73-2.01-20.92-3.37-40.13-10.63-57.65-21.75-2.42-.66-4.81-1.39-7.18-2.16-17.44-3.36-33.66-9.5-48.67-18.39-1.31-.38-2.61-.76-3.93-1.14-1.13-.19-2.27-.39-3.41-.61-2.26-.36-4.49-.79-6.71-1.25-13.12-2.2-25.57-5.93-37.34-11.19-.7-.12-1.4-.25-2.1-.38-9.09-1.47-17.85-3.68-26.3-6.61-2.88-.72-5.73-1.53-8.55-2.42-10.06,.69-20.26,.05-30.6-1.97-13.57-2.19-26.43-6.02-38.57-11.47-1.76-.36-3.52-.74-5.25-1.15-9.3,.44-18.71-.26-28.24-2.12-14.7-2.37-28.55-6.66-41.57-12.85-5.63-.29-11.29-.97-17-2.09-.47-.08-.92-.17-1.39-.25-11.02,1.55-18.38,5.55-21.64,12.55-11.84,25.43,70.62,61.69,220.41,107.17,127.62,38.74,223.96,58.7,249.48,36.34,11.84-10.37,2.37-23.55-26.93-39.21Z"/>
  <path class="cls-3" d="M469.01,348.21c.96-.34-35.07,9.54-183.23-30.15-119.09-31.89-204.12-72.66-208.67-75.13-9.75-5.3,74.3,18.24,215.26,59.66,145.68,42.8,161.04,51.24,176.64,45.62Z"/>
  <path class="cls-9" d="M181.15,238.53c-.12-.3-.09-.62,0-.94,.02-.08,.04-.17,.06-.27-.86-2.65-1.47-5.4-1.83-8.25l-.07-.33c-.74-2.4-1.53-4.97-2.09-7.38-3.03-.87-6.03-1.83-8.98-2.87l3.43,21.55c.3,1.99,5.77,6.84,10.08,9.32,1.52,.88,3.46-.52,2.86-2.05l-3.47-8.79Z"/>
  <path class="cls-9" d="M120.58,219.74c-.76-2.13-1.29-4.34-1.56-6.65l-.02-.08c-.36-1.07-.74-2.19-1.09-3.31-2.97-.58-5.9-1.25-8.8-1.99l2.32,14.4c.34,2.23,10.32,8.77,13.41,8.34l-4.53-10.17c.13-.13,.22-.32,.27-.55Z"/>
  <path class="cls-9" d="M405.62,303.58c-1.03-2.9-1.73-5.92-2.1-9.06l-.02-.1c-.86-2.57-1.79-5.33-2.44-7.92-3.84-1.35-7.62-2.84-11.33-4.5-.06,.41-.07,.82,0,1.23l3.78,23.54c.46,3.03,13.73,11.99,17.83,11.42l-6.06-13.87c.17-.18,.29-.43,.35-.74Z"/>
  <path class="cls-9" d="M289.14,270.34c-1.05-3.14-1.79-6.4-2.2-9.78l-.02-.11c-1.79-5.65-3.9-12.15-3.34-16.19-2.29-.65-4.57-1.34-6.82-2.09-2.45,1.28-3.96,3.63-3.59,6.06l4.06,25.4c.49,3.28,13.71,13.09,17.74,12.53l-6.17-15.02c.17-.19,.28-.46,.34-.8Z"/>
  <path class="cls-9" d="M349.19,287.81c-1.01-3.34-1.74-6.8-2.19-10.38l-.02-.12c-1.23-4.28-2.6-9.02-3.16-12.93-3.02-1-6.01-2.09-8.95-3.27-.32,.92-.43,1.93-.28,2.95l4.26,26.91c.52,3.47,12.37,14.16,15.9,13.67l-5.82-16c.14-.2,.23-.48,.27-.83Z"/>
  <path class="cls-9" d="M232.08,249.9c-.12-.3-.09-.62,0-.94,.02-.08,.04-.17,.06-.27-.86-2.65-1.47-5.4-1.83-8.25l-.07-.33c-1.29-4.19-2.72-8.88-2.8-12.28-.44-.13-.88-.27-1.32-.41-2.26,.15-4.53,.26-6.8,.27-.2,.64-.27,1.31-.17,1.99l3.46,21.73c.3,1.99,5.77,6.84,10.08,9.32,1.52,.88,3.46-.52,2.86-2.05l-3.47-8.79Z"/>
  <path class="cls-9" d="M463.53,318.07c-.76-2.13-1.29-4.34-1.56-6.65l-.02-.08c-1.08-3.18-2.32-6.76-2.43-9.47-.99-.52-1.97-1.06-2.95-1.61-.92-.31-1.83-.63-2.75-.95-1.53,.94-2.45,2.38-2.23,3.85l2.78,17.28c.34,2.23,10.32,8.77,13.41,8.34l-4.53-10.17c.13-.13,.22-.32,.27-.55Z"/>
  <path class="cls-4" d="M470.94,155.93c5.5,26.27-17.79,44.8-50.36,51.61-32.57,6.82-62.09-.66-67.59-26.93-5.5-26.27,18.12-47.01,50.69-53.82,32.57-6.82,61.76,2.87,67.26,29.14Z"/>
  <path class="cls-1" d="M459.82,146.47c3.97,18.96-15.93,32.98-43.31,38.71-27.38,5.73-51.87,1-55.84-17.96s16.26-34.6,43.64-40.33c27.38-5.73,51.54,.61,55.51,19.57Z"/>
  <path class="cls-2" d="M430.09,152.42c1.46,6.99-6.7,12.34-17.83,14.67-11.13,2.33-21.01,.76-22.47-6.23s6.84-12.94,17.97-15.27,20.86-.16,22.33,6.83Z"/>
  <path class="cls-7" d="M421.76,154.35c.89,4.27-3.91,7.5-10.49,8.88-6.57,1.38-12.43,.38-13.32-3.89s4-7.87,10.57-9.24,12.34-.01,13.24,4.26Z"/>
  <path class="cls-8" d="M468.09,168.76c.02,8.22-25.25,37.31-60.57,28.63-30.93-7.6-43.5-3.19-41.49-.16,2.74,4.14,21.19,9.57,42.73,6.09,38.6-6.24,59.31-42.34,59.33-34.56Z"/>
  <ellipse class="cls-10" cx="383.26" cy="145" rx="3.11" ry="2.8" transform="translate(-21.58 81.59) rotate(-11.82)"/>
  <ellipse class="cls-10" cx="388.13" cy="168.26" rx="3.11" ry="2.8" transform="translate(-26.24 83.09) rotate(-11.82)"/>
  <path class="cls-10" d="M420.1,172.24c.32,1.51-.79,3.02-2.47,3.37-1.68,.35-3.3-.59-3.62-2.1"/>
  <path class="cls-10" d="M400.73,179.54c.32,1.51-.79,3.02-2.47,3.37-1.68,.35-3.3-.59-3.62-2.1"/>
  <ellipse class="cls-10" cx="430.83" cy="140.76" rx="3.11" ry="2.8" transform="translate(-19.7 91.25) rotate(-11.82)"/>
  <ellipse class="cls-10" cx="370.72" cy="164.77" rx="3.11" ry="2.8" transform="translate(-25.89 79.44) rotate(-11.82)"/>
  <ellipse class="cls-10" cx="441.5" cy="161.38" rx="3.11" ry="2.8" transform="translate(-23.7 93.87) rotate(-11.82)"/>
  <ellipse class="cls-10" cx="441.68" cy="147.06" rx="3.11" ry="2.8" transform="translate(-20.76 93.6) rotate(-11.82)"/>
  <ellipse class="cls-10" cx="400.05" cy="137.91" rx="3.11" ry="2.8" transform="translate(-19.77 84.88) rotate(-11.82)"/>
  <path class="cls-11" d="M260.8,76.07c-30.69,6.16-49.57,22.08-80.25,28.26-37,7.46-85.78,5.18-122.73,12.67-1.91,0-11.91-.09-20-3.44-5.13-2.12-8.32-5.04-8.32-8.26V33.19c0-6.43,12.75-11.69,28.32-11.69H499.18c15.58,0,28.32,5.26,28.32,11.69V105.31c-23-1.37-57.22-3.86-98.28-8.59-13.3-1.53-3.89,8.45-10.28,7.61-30.01-3.91-93.85-20.79-158.13-28.26Z"/>
  <path class="cls-11" d="M522.32,343.98c0,29.55-111.48,53.5-249,53.5s-249-23.95-249-53.5,120.65,46.63,249,15.5c164.94-40,249-45.05,249-15.5Z"/>
</svg>