<?xml version="1.0" encoding="UTF-8"?>
<svg id="Calque_1" data-name="Calque 1" xmlns="http://www.w3.org/2000/svg" width="244" height="244" viewBox="0 0 244 244">
  <defs>
    <style>
      .cls-1 {
        fill: #2e3192;
      }

      .cls-1, .cls-2 {
        stroke-width: 2px;
      }

      .cls-1, .cls-2, .cls-3, .cls-4 {
        stroke: #fff;
        stroke-miterlimit: 10;
      }

      .cls-2, .cls-3, .cls-4 {
        fill: #fff;
      }

      .cls-3 {
        opacity: .13;
      }

      .cls-5 {
        opacity: .1;
      }

      .cls-4 {
        opacity: .14;
      }
    </style>
  </defs>
  <circle class="cls-1" cx="122" cy="122" r="121"/>
  <rect class="cls-2" x="18" y="105" width="208.45" height="33.07" transform="translate(244.45 243.07) rotate(180)"/>
  <rect class="cls-2" x="23.98" y="105.73" width="196.58" height="33.46" transform="translate(244.73 .19) rotate(90)"/>
  <path class="cls-5" d="M31.63,174.62c22.95,34.07,85.03,49.52,72.83,57.74-12.2,8.22-58.63-8.61-81.58-42.68C-.08,155.62-3.91,107.28,8.29,99.06c12.2-8.22,.39,41.49,23.34,75.56Z"/>
  <path class="cls-3" d="M129.5,222.1c7.12-1.3,14.42-2.65,21.93-2.61,1.68,0,3.4,.17,5.11,.42,4.7,.67,9.42,1.43,14.14,2.27l4.45-1.61c3.1-2.19,6.15-4.45,9.23-6.65,5.83-4.18,11.85-8.05,17.48-12.47,1.67-1.98,3.26-4.04,4.77-6.18,4.63-10.06,8.92-20.36,12.94-30.83l-.43-4.86c-2.02-3.06-8.85,21.79-11.26,23.37l-81.99,37.48c-.64,.42,.48,1.1,2.51,1.93,.37-.09,.74-.18,1.11-.24Z"/>
  <path class="cls-4" d="M75.8,51.67l17.19-9.15c4.24-.47,13.23-.28,20.91,.09,3.44-.94,6.96-1.73,10.56-2.38l11.5-4.81c26.41-8.5-15.67-20.09-26.61-18.87l-59.51,18.92c-10.94,1.23-9.57,11.12-7.63,15.84h0c1.95,4.72,22.65,1.57,33.59,.35Z"/>
</svg>