<?xml version="1.0" encoding="UTF-8"?>
<svg id="Calque_1" data-name="Calque 1" xmlns="http://www.w3.org/2000/svg" width="486" height="261" xmlns:xlink="http://www.w3.org/1999/xlink" viewBox="0 0 486 261">
  <defs>
    <style>
      .cls-1 {
        fill: url(#Dégradé_sans_nom_14);
      }

      .cls-2 {
        fill: #fff;
        opacity: .17;
      }

      .cls-3 {
        fill: #0000ab;
      }

      .cls-4 {
        fill: #1b1464;
        opacity: .86;
      }
    </style>
    <linearGradient id="Dégradé_sans_nom_14" data-name="Dégradé sans nom 14" x1="244" y1="5" x2="244" y2="238" gradientTransform="matrix(1, 0, 0, 1, 0, 0)" gradientUnits="userSpaceOnUse">
      <stop offset=".04" stop-color="#fff"/>
      <stop offset=".47" stop-color="#f2f2f2"/>
      <stop offset="1" stop-color="#b3b3b3"/>
    </linearGradient>
  </defs>
  <rect class="cls-4" width="486" height="261" rx="51.03" ry="51.03"/>
  <rect class="cls-1" x="16" y="5" width="456" height="233" rx="51.24" ry="51.24"/>
  <path class="cls-2" d="M364.02,250.99c7.35,.3,14.88,.6,21.99,1.85,1.59,.28,3.14,.67,4.66,1.11,4.15,1.21,8.27,2.48,12.37,3.8l4.95-.34c3.94-.94,7.87-1.93,11.8-2.88,7.44-1.8,14.92-3.38,22.28-5.38,2.49-1.04,4.94-2.14,7.35-3.3,9-5.88,17.79-11.98,26.39-18.23l1.82-3.28c-.51-2.34-18.37,12.93-21.38,13.59l-94.89,11.37c-.8,.17-.05,.8,1.5,1.68,.39,0,.78,0,1.17,.02Z"/>
  <path class="cls-2" d="M67.29,255.19c-6.78-1.23-15.41-2.41-16.81-3.49L15.43,217.87c-1.77,1.34-3.57,2.65-5.43,3.91-2.3,2.2-4.68,4.28-7.11,6.26l.59,.64c3.27,2.39,6.58,4.74,9.85,7.11,6.2,4.5,12.22,9.2,18.54,13.48,2.45,1.16,4.94,2.25,7.45,3.25,8.9,2.1,17.84,3.95,26.8,5.62,.39-.98,.78-1.96,1.17-2.94Z"/>
  <g>
    <path class="cls-3" d="M54.34,76.07c5.59-.93,12.9-1.73,22.21-1.73,11.44,0,19.82,2.66,25.14,7.45,4.92,4.26,7.85,10.77,7.85,18.75s-2.39,14.5-6.92,19.15c-6.12,6.52-16.09,9.84-27.4,9.84-3.46,0-6.65-.13-9.31-.8v35.91h-11.57V76.07Zm11.57,43.22c2.53,.67,5.72,.93,9.58,.93,13.96,0,22.48-6.78,22.48-19.15s-8.38-17.56-21.15-17.56c-5.05,0-8.91,.4-10.91,.93v34.84Z"/>
    <path class="cls-3" d="M176.57,147.09c0,6.65,.13,12.5,.53,17.56h-10.37l-.67-10.51h-.27c-3.06,5.19-9.84,11.97-21.28,11.97-10.11,0-22.21-5.59-22.21-28.19v-37.64h11.7v35.64c0,12.24,3.72,20.48,14.36,20.48,7.85,0,13.3-5.45,15.43-10.64,.67-1.73,1.06-3.86,1.06-5.98v-39.5h11.7v46.81Z"/>
    <path class="cls-3" d="M195.45,164.64c.27-4.39,.53-10.91,.53-16.62V70.22h11.57v40.43h.27c4.12-7.18,11.57-11.84,21.94-11.84,15.96,0,27.26,13.3,27.13,32.85,0,23.01-14.5,34.45-28.86,34.45-9.31,0-16.76-3.59-21.55-12.1h-.4l-.53,10.64h-10.11Zm12.1-25.8c0,1.46,.27,2.93,.53,4.26,2.26,8.11,9.04,13.7,17.55,13.7,12.24,0,19.55-9.97,19.55-24.74,0-12.9-6.65-23.94-19.15-23.94-7.98,0-15.43,5.45-17.82,14.36-.27,1.33-.67,2.93-.67,4.79v11.57Z"/>
    <path class="cls-3" d="M271.66,70.22h11.7v94.43h-11.7V70.22Z"/>
    <path class="cls-3" d="M316.08,82.19c.13,3.99-2.79,7.18-7.45,7.18-4.12,0-7.05-3.19-7.05-7.18s3.06-7.31,7.31-7.31,7.18,3.19,7.18,7.31Zm-13.03,82.46V100.27h11.7v64.37h-11.7Z"/>
    <path class="cls-3" d="M340.69,134.59c.27,15.83,10.37,22.34,22.08,22.34,8.38,0,13.43-1.46,17.82-3.32l1.99,8.38c-4.12,1.86-11.17,3.99-21.41,3.99-19.82,0-31.65-13.03-31.65-32.45s11.44-34.71,30.19-34.71c21.01,0,26.6,18.49,26.6,30.32,0,2.39-.27,4.26-.4,5.45h-45.22Zm34.31-8.38c.13-7.45-3.06-19.02-16.23-19.02-11.84,0-17.02,10.91-17.95,19.02h34.18Z"/>
    <path class="cls-3" d="M400.8,120.36c0-7.58-.13-14.1-.53-20.08h10.24l.4,12.63h.53c2.93-8.64,9.97-14.1,17.82-14.1,1.33,0,2.26,.13,3.32,.4v11.04c-1.2-.27-2.39-.4-3.99-.4-8.25,0-14.1,6.25-15.69,15.03-.27,1.6-.53,3.46-.53,5.45v34.31h-11.57v-44.29Z"/>
  </g>
</svg>