<?xml version="1.0" encoding="UTF-8"?>
<svg id="Calque_1" data-name="Calque 1" xmlns="http://www.w3.org/2000/svg" width="486" height="261" xmlns:xlink="http://www.w3.org/1999/xlink" viewBox="0 0 486 261">
  <defs>
    <style>
      .cls-1 {
        fill: url(#Dégradé_sans_nom_14);
      }

      .cls-2 {
        fill: #fff;
        opacity: .17;
      }

      .cls-3 {
        fill: #0000ab;
      }

      .cls-4 {
        fill: #1b1464;
        opacity: .86;
      }
    </style>
    <linearGradient id="Dégradé_sans_nom_14" data-name="Dégradé sans nom 14" x1="245.5" y1="5.5" x2="245.5" y2="238.5" gradientTransform="matrix(1, 0, 0, 1, 0, 0)" gradientUnits="userSpaceOnUse">
      <stop offset=".04" stop-color="#fff"/>
      <stop offset=".47" stop-color="#f2f2f2"/>
      <stop offset="1" stop-color="#b3b3b3"/>
    </linearGradient>
  </defs>
  <rect class="cls-4" width="486" height="261" rx="51.03" ry="51.03"/>
  <rect class="cls-1" x="17.5" y="5.5" width="456" height="233" rx="51.24" ry="51.24"/>
  <g>
    <path class="cls-3" d="M132.84,121.49h-34.84v32.32h38.83v9.71h-50.41V73.88h48.41v9.71h-36.84v28.33h34.84v9.58Z"/>
    <path class="cls-3" d="M151.46,116.57c0-6.65-.13-12.1-.53-17.42h10.37l.67,10.64h.27c3.19-6.12,10.64-12.1,21.28-12.1,8.91,0,22.74,5.32,22.74,27.4v38.44h-11.7v-37.11c0-10.37-3.86-19.02-14.9-19.02-7.71,0-13.7,5.45-15.69,11.97-.53,1.46-.8,3.46-.8,5.45v38.7h-11.7v-46.95Z"/>
    <path class="cls-3" d="M238.84,80.66v18.49h16.76v8.91h-16.76v34.71c0,7.98,2.26,12.5,8.78,12.5,3.06,0,5.32-.4,6.78-.8l.53,8.78c-2.26,.93-5.85,1.6-10.37,1.6-5.45,0-9.84-1.73-12.63-4.92-3.33-3.46-4.52-9.18-4.52-16.76v-35.11h-9.97v-8.91h9.97v-15.43l11.44-3.06Z"/>
    <path class="cls-3" d="M268.76,119.23c0-7.58-.13-14.1-.53-20.08h10.24l.4,12.63h.53c2.93-8.64,9.97-14.1,17.82-14.1,1.33,0,2.26,.13,3.32,.4v11.04c-1.2-.27-2.39-.4-3.99-.4-8.25,0-14.1,6.25-15.69,15.03-.27,1.6-.53,3.46-.53,5.45v34.31h-11.57v-44.29Z"/>
    <path class="cls-3" d="M317.44,133.46c.27,15.83,10.37,22.34,22.08,22.34,8.38,0,13.43-1.46,17.82-3.32l2,8.38c-4.12,1.86-11.17,3.99-21.41,3.99-19.82,0-31.65-13.03-31.65-32.45s11.44-34.71,30.19-34.71c21.01,0,26.6,18.49,26.6,30.32,0,2.39-.27,4.26-.4,5.45h-45.22Zm34.31-8.38c.13-7.45-3.06-19.02-16.23-19.02-11.84,0-17.02,10.91-17.95,19.02h34.18Z"/>
    <path class="cls-3" d="M377.55,119.23c0-7.58-.13-14.1-.53-20.08h10.24l.4,12.63h.53c2.93-8.64,9.97-14.1,17.82-14.1,1.33,0,2.26,.13,3.32,.4v11.04c-1.2-.27-2.39-.4-3.99-.4-8.25,0-14.1,6.25-15.69,15.03-.27,1.6-.53,3.46-.53,5.45v34.31h-11.57v-44.29Z"/>
  </g>
  <path class="cls-2" d="M357.83,253.59c7.28,.11,14.74,.21,21.74,1.11,1.57,.2,3.09,.49,4.57,.83,4.06,.93,8.09,1.91,12.09,2.93l4.93-.38c3.96-.87,7.91-1.77,11.86-2.64,7.48-1.66,14.97-3.12,22.38-4.94,2.52-.92,5.01-1.88,7.46-2.91,9.22-5.09,18.24-10.36,27.1-15.75l1.96-2.77c-.39-1.95-18.88,11.16-21.89,11.77l-94.75,11.38c-.8,.16-.09,.67,1.4,1.37,.39,0,.77-.01,1.16,0Z"/>
  <path class="cls-2" d="M66.2,248.99c-6.78-1.23-15.41-2.41-16.81-3.49L14.34,211.66c-1.77,1.34-3.57,2.65-5.43,3.91-2.3,2.2-4.68,4.28-7.11,6.26l.59,.64c3.27,2.39,6.58,4.74,9.85,7.11,6.2,4.5,12.22,9.2,18.54,13.48,2.45,1.16,4.94,2.25,7.45,3.25,8.9,2.1,17.84,3.95,26.8,5.62,.39-.98,.78-1.96,1.17-2.94Z"/>
</svg>