<?xml version="1.0" encoding="utf-8"?>
<!-- Generator: Adobe Illustrator 26.3.1, SVG Export Plug-In . SVG Version: 6.00 Build 0)  -->
<svg version="1.1" id="Calque_1" xmlns="http://www.w3.org/2000/svg" xmlns:xlink="http://www.w3.org/1999/xlink" x="0px" y="0px"
	 viewBox="0 0 510.12 284.78" style="enable-background:new 0 0 510.12 284.78;" xml:space="preserve">
<style type="text/css">
	.st0{fill:#333333;}
	.st1{fill:url(#SVGID_1_);}
	.st2{opacity:0.17;fill:#FFFFFF;}
	.st3{font-family:'MyriadPro-Regular';}
	.st4{font-size:100px;}
</style>
<g>
	<path class="st0" d="M447.03,274.52H63.09c-28.07,0-51.03-22.96-51.03-51.03V64.55c0-28.07,22.96-51.03,51.03-51.03h383.94
		c28.07,0,51.03,22.96,51.03,51.03v158.94C498.06,251.56,475.1,274.52,447.03,274.52z"/>
	<linearGradient id="SVGID_1_" gradientUnits="userSpaceOnUse" x1="257.5641" y1="19.0217" x2="257.5641" y2="252.0217">
		<stop  offset="0.0358" style="stop-color:#FFFFFF"/>
		<stop  offset="0.4698" style="stop-color:#F2F2F2"/>
		<stop  offset="1" style="stop-color:#B3B3B3"/>
	</linearGradient>
	<path class="st1" d="M434.33,252.02H80.8c-28.18,0-51.24-23.06-51.24-51.24V70.26c0-28.18,23.06-51.24,51.24-51.24h353.53
		c28.18,0,51.24,23.06,51.24,51.24v130.53C485.56,228.97,462.51,252.02,434.33,252.02z"/>
	<path class="st2" d="M70.36,259.56c-5.43-0.45-12.39-0.66-13.42-1.53l-25.22-28.16c-1.59,1.45-3.21,2.86-4.86,4.24
		c-2.12,2.31-4.28,4.51-6.48,6.62l0.42,0.54c2.43,1.91,4.9,3.77,7.34,5.66c4.62,3.58,9.06,7.38,13.8,10.74
		c1.89,0.84,3.81,1.6,5.77,2.28c7.08,1.05,14.22,1.86,21.39,2.5C69.51,261.49,69.94,260.53,70.36,259.56z"/>
	<text transform="matrix(1 0 0 1 85.3454 163.1663)" class="st0 st3 st4">Rapport</text>
	<path class="st2" d="M385.23,268.1c7.27-0.4,14.72-0.83,21.76-0.42c1.58,0.09,3.11,0.28,4.61,0.51c4.11,0.64,8.2,1.33,12.26,2.07
		l4.89-0.72c3.89-1.14,7.77-2.32,11.64-3.47c7.34-2.18,14.72-4.16,21.98-6.5c2.45-1.09,4.86-2.23,7.24-3.42
		c8.84-5.72,17.47-11.61,25.92-17.61l1.76-2.91c-0.53-1.92-18.05,12.46-21.01,13.28l-93.72,18c-0.79,0.22-0.04,0.68,1.5,1.27
		C384.46,268.15,384.85,268.12,385.23,268.1z"/>
</g>
</svg>
