<?xml version="1.0" encoding="UTF-8"?>
<svg id="Calque_1" data-name="Calque 1" xmlns="http://www.w3.org/2000/svg" width="238" height="234.12" viewBox="0 0 238 234.12">
  <defs>
    <style>
      .cls-1, .cls-2, .cls-3 {
        fill: #fff;
      }

      .cls-4 {
        fill: #0071bc;
        stroke: #fff;
        stroke-miterlimit: 10;
        stroke-width: 3px;
      }

      .cls-5 {
        fill: #666;
        opacity: .19;
      }

      .cls-2 {
        opacity: .17;
      }

      .cls-3 {
        opacity: .15;
      }
    </style>
  </defs>
  <ellipse class="cls-4" cx="119" cy="117.06" rx="117.5" ry="115.56"/>
  <polygon class="cls-1" points="184.35 191.23 121 160.99 57.65 191.23 69.75 127.18 18.5 81.82 89.33 72.48 121 14.2 152.67 72.48 223.5 81.82 172.25 127.18 184.35 191.23"/>
  <path class="cls-3" d="M89.85,86.3l22.87-20.56c5.64-1.07,17.6-.62,27.82,.21,4.58-2.1,9.27-3.89,14.05-5.35l15.3-10.8c35.14-19.1-20.85-45.15-35.41-42.39L55.3,49.92c-14.56,2.75-12.73,24.98-10.15,35.6h0c2.59,10.62,30.13,3.53,44.7,.78Z"/>
  <path class="cls-2" d="M137.17,208.45c6.67-1.1,13.49-2.25,20.56-2.06,1.58,.04,3.19,.23,4.81,.5,4.43,.74,8.88,1.56,13.34,2.45l4.15-1.45c2.87-2.04,5.69-4.13,8.54-6.18,5.4-3.88,10.97-7.46,16.17-11.58,1.53-1.86,2.98-3.8,4.36-5.82,4.15-9.53,7.98-19.3,11.54-29.24l-.51-4.66c-1.96-2.96-7.88,20.67-10.11,22.14l-76.3,34.22c-.59,.39,.48,1.06,2.4,1.9,.34-.08,.69-.15,1.04-.21Z"/>
  <path class="cls-5" d="M33.33,166.51c20.26,29.29,85.05,50.44,73.56,58.39-11.48,7.95-61.79-15.21-82.05-44.5C4.58,151.11-.59,99.84,10.89,91.9c11.48-7.95,2.17,45.32,22.44,74.61Z"/>
</svg>