<?xml version="1.0" encoding="utf-8"?>
<!-- Generator: Adobe Illustrator 26.3.1, SVG Export Plug-In . SVG Version: 6.00 Build 0)  -->
<svg version="1.1" id="Calque_1" xmlns="http://www.w3.org/2000/svg" xmlns:xlink="http://www.w3.org/1999/xlink" x="0px" y="0px"
	 viewBox="0 0 726.2 459" style="enable-background:new 0 0 726.2 459;" xml:space="preserve">
<style type="text/css">
	.st0{fill:#0071BC;stroke:#000000;stroke-miterlimit:10;}
	.st1{fill:none;}
	.st2{opacity:0.47;}
	.st3{fill:#FFFFFF;}
</style>
<g>
	<rect x="0.5" y="0.5" class="st0" width="725.2" height="458"/>
	<line class="st1" x1="539.7" y1="165.5" x2="600.9" y2="219.1"/>
	<g class="st2">
		<path d="M173.9,308.8c-0.4-1.9-1.5-2.7-3.2-2.4c-5.8,0.9-14.5,2.7-26,5.4c-11.5,2.7-20.2,4.5-26,5.4c-1.6,0.3-2.5,0.4-2.5,0.4
			c-1-0.1-1.6-0.6-1.9-1.6s-0.5-2-0.8-2.9c-1.1-4.9-2.7-12.6-5-23.1l-6.8-32.7c-5.6-31.3-9.6-54.7-12.1-70.3l-0.2-1.6
			c-0.3-1.6-0.9-2.3-1.9-2.1c-2.1,0.3-5.3,1-9.5,2s-7.3,1.6-9.5,2c-1.9,0.3-4.8,0.6-8.7,1s-6.8,0.7-8.8,1c-1.9,0.3-2.7,1.4-2.3,3.2
			c2,9.6,5.3,23.9,9.7,42.9c4.5,19,7.7,33.3,9.7,42.9c1.9,9,4.6,22.5,8.2,40.5c3.5,18,6.3,31.5,8.2,40.4c0.5,2.1,1.7,3.3,3.6,3.4
			c5.5-0.5,9.8-1,12.7-1.5l29.2-4.2c2.9-0.4,10.2-1.3,21.9-2.9c9-1.1,16.3-2.1,21.9-3c2.3-0.4,3.6-0.7,3.9-0.9c1-0.6,1.4-2,1.2-4.2
			C178.6,335.3,176.9,323,173.9,308.8z"/>
		<path d="M280.9,245.5c-26.1-48.2-41.6-76.4-46.6-84.6c-1.6-2.6-3-3.7-4.3-3.5c-1.7,0.3-4.2,0.8-7.6,1.7c-3.3,0.8-5.9,1.4-7.6,1.7
			c-1.8,0.3-4.6,0.5-8.4,0.7c-3.8,0.2-6.5,0.4-8.3,0.7c-1,0.2-1.6,1.9-1.7,5.1c-0.2,5.7-2.5,37.1-6.9,94.4
			c-4,52.9-5.8,80.5-5.4,82.6c0.5,2.4,5.7,2.8,15.7,1.2c12.6-2,19.9-3.6,22-4.6c1.6-0.9,2.3-4.8,2.1-11.9
			c-0.2-7.7,0.1-12.3,0.9-13.8c0.6-0.9,6.4-2.2,17.4-4c16.4-2.6,25.1-3.8,26.3-3.3c1.4,0.6,4.5,6.7,9.2,18.2c1.2,3,3,4.7,5.4,4.9
			c2.8,0.2,8.8-0.4,18.1-1.9c10.1-1.6,16.1-2.9,17.9-3.9c1.5-0.8,2.1-2,1.8-3.5C320.4,319.5,307.1,294.1,280.9,245.5z M248.7,265.4
			c-0.2,1.4-2.4,2.4-6.7,3.1c-4.6,0.7-7.9,1.2-10,1.4c-3.9,0.5-6.1,0-6.4-1.5c-0.5-2.2-0.3-10.1,0.5-23.5
			c0.7-12.6,1.3-20.9,1.9-24.7c2.1,3.1,5.8,10.3,11.2,21.7c5.6,11.8,8.6,19.1,9.2,21.8C248.7,264.4,248.8,265,248.7,265.4z"/>
		<path d="M429,262.9c-6.5-8.1-10.4-12.8-11.7-14.1c-0.8-0.8-1.6-1.2-2.2-1c-0.3,0.1-1.6,1.9-3.8,5.5c-2.7,4.3-5.4,7.7-8.3,10.3
			c-4.4,4-9.4,6.4-15.1,7.3c-9.5,1.5-18.1-1.8-25.8-10.2c-7-7.6-11.9-17.7-14.5-30.3c-2.6-12.4-2.2-23.2,1.3-32.5
			c3.8-10,10.5-15.8,20-17.3c5.5-0.9,11.2-0.1,17,2.4c3.8,1.7,7.9,4.2,12.3,7.6c3.6,2.8,5.6,4.2,5.9,4.2c0.8-0.1,1.4-0.6,1.7-1.3
			c0.9-1.4,2.6-7.5,5-18.3s3.4-17,3.1-18.5c-0.3-1.4-1.3-2.9-3-4.5c-15.4-14.5-33.6-20-54.7-16.6c-19.3,3.1-33.4,14.9-42,35.2
			c-8.3,19.4-9.9,41.7-4.6,66.7c5.5,25.9,16.1,46.4,31.9,61.4c16.3,15.5,34.6,21.7,54.8,18.4c19.8-3.2,33.8-14.8,41.9-34.8
			c0.9-2.4,1.2-4.2,1-5.5C439.1,276,435.7,271.3,429,262.9z"/>
		<path d="M519.5,143.3c-1.3-3.9-2.1-6.9-2.5-9c-0.4-1.8-1-4.9-1.8-9.3c-0.7-4-1.3-7.1-1.8-9.3c-0.4-1.4-0.7-2.2-0.9-2.3
			c-0.2-0.2-1-0.2-2.3,0.1c-0.1,0-4.2,1.1-12.5,3.3c-15.4,4.1-26,6.6-31.8,7.6c-20.6,3.3-36.3,5-47.2,4.9c-0.8,0-1.3,0.1-1.4,0.1
			c-1.1,0.2-1.2,3.4-0.4,9.7c0.6,3.9,1.1,7.8,1.8,11.7c0.1,1.3,0.3,4.9,0.5,10.8c0.2,5.4,0.4,8.7,0.6,9.7c0.2,0.8,0.8,1.2,1.8,1
			c7.7-1.2,17.9-3.7,30.5-7.5c5.2,22.2,8.5,36.5,9.8,42.9c2,9.7,4.8,24.4,8.2,44c3.4,19.6,6.2,34.2,8.2,44c0.5,2.1,1.6,3.3,3.5,3.4
			c3.5,0.1,9.5-0.5,17.8-1.9c7.5-1.2,13.2-2.5,16.9-3.8c1.6-0.5,2.4-0.9,2.6-1.1c0.5-0.5,0.6-1.5,0.3-3.1c-2-9.7-5.4-24.3-10.2-43.8
			c-4.7-19.4-8.1-34-10.2-43.8c-1.7-8.2-4.6-22.8-8.6-43.8c17.3-1.5,27.2-2.5,29.7-2.9c1.4-0.2,2-1.2,1.6-2.8
			C521.6,150.1,520.7,147.2,519.5,143.3z"/>
		<path d="M678,177.7c-5.4-25.5-16.4-46-33.2-61.5c-17.1-15.8-35.6-22-55.5-18.8c-20.1,3.2-34.8,14.9-44.3,34.9
			c-9.3,19.6-11.3,42.2-5.9,67.9c4.5,21.5,13,39.3,25.5,53.5l-29.2,67.9c-5.4,12.6,1.9,26.9,16.4,31.6c14.4,4.8,30.7-1.7,36.1-14.3
			l0,0l24.9-58.1c4.9,0.4,9.8,0.2,14.9-0.6c20.2-3.3,35-14.8,44.5-34.6C681.5,226.1,683.4,203.5,678,177.7z M638.4,216
			c-4.5,10.4-11.3,16.3-20.4,17.8c-9.8,1.6-18.7-1.5-26.6-9.4c-7.5-7.5-12.7-17.5-15.3-30.2c-2.5-11.8-1.6-22.7,2.7-32.8
			c4.4-10.4,11.1-16.4,20.3-17.9c9.6-1.5,18.5,1.7,26.5,9.8c7.7,7.7,12.9,17.7,15.5,30.1C643.5,195.2,642.7,206.1,638.4,216z"/>
	</g>
	<g>
		<path class="st3" d="M180.7,296.3c-0.4-1.8-1.4-2.6-3.1-2.4c-5.6,0.9-13.9,2.7-24.8,5.3c-11,2.6-19.3,4.3-24.8,5.3
			c-1.6,0.3-2.4,0.4-2.4,0.4c-0.9-0.1-1.5-0.6-1.8-1.6s-0.5-1.9-0.8-2.9c-1-4.7-2.6-12.2-4.7-22.5l-6.5-31.8
			c-5.3-30.4-9.2-53.2-11.5-68.4l-0.2-1.6c-0.3-1.5-0.8-2.2-1.8-2.1c-2,0.3-5.1,1-9,1.9c-4,0.9-7,1.6-9,1.9c-1.8,0.3-4.6,0.6-8.3,1
			c-3.7,0.4-6.5,0.7-8.4,1s-2.6,1.3-2.2,3.1c1.9,9.3,5,23.2,9.3,41.7c4.3,18.5,7.4,32.4,9.3,41.7c1.8,8.8,4.4,21.9,7.8,39.4
			s6,30.6,7.8,39.4c0.4,2.1,1.6,3.2,3.5,3.3c5.3-0.5,9.3-1,12.1-1.5l27.9-4.1c2.7-0.4,9.7-1.3,21-2.8c8.6-1.1,15.6-2.1,20.9-2.9
			c2.2-0.4,3.5-0.7,3.8-0.9c0.9-0.6,1.3-1.9,1.2-4.1C185.2,322,183.5,310,180.7,296.3z"/>
		<path class="st3" d="M282.9,234.7c-24.9-46.9-39.7-74.4-44.5-82.3c-1.5-2.5-2.9-3.6-4.1-3.4c-1.6,0.3-4,0.8-7.2,1.6
			s-5.6,1.4-7.3,1.6c-1.7,0.3-4.4,0.5-8,0.7s-6.2,0.4-7.9,0.7c-1,0.2-1.5,1.8-1.7,5c-0.2,5.5-2.4,36.1-6.6,91.8
			c-3.8,51.5-5.6,78.3-5.1,80.4c0.5,2.3,5.5,2.7,15,1.2c12-2,19-3.5,21-4.5c1.6-0.8,2.2-4.7,2-11.5c-0.2-7.5,0.1-12,0.9-13.5
			c0.5-0.8,6.1-2.1,16.6-3.9c15.6-2.6,24-3.7,25.1-3.3c1.3,0.6,4.3,6.5,8.8,17.7c1.2,3,2.9,4.5,5.1,4.8c2.7,0.2,8.4-0.4,17.3-1.9
			c9.7-1.6,15.4-2.9,17.1-3.8c1.4-0.8,2-1.9,1.7-3.4C320.6,306.7,307.9,281.9,282.9,234.7z M252.2,254.1c-0.2,1.4-2.3,2.4-6.4,3
			c-4.4,0.7-7.6,1.2-9.5,1.3c-3.8,0.5-5.8,0-6.1-1.5c-0.4-2.2-0.3-9.8,0.5-22.9c0.7-12.3,1.3-20.3,1.9-24.1c2,3,5.5,10,10.7,21.1
			c5.3,11.5,8.3,18.6,8.8,21.2C252.1,253.1,252.2,253.6,252.2,254.1z"/>
		<path class="st3" d="M424.4,251.6c-6.2-7.9-9.9-12.4-11.2-13.7c-0.8-0.8-1.5-1.1-2.1-1c-0.3,0.1-1.5,1.8-3.6,5.3
			c-2.5,4.2-5.2,7.5-7.9,10c-4.2,3.8-9,6.2-14.4,7.1c-9.1,1.5-17.3-1.8-24.6-9.9c-6.7-7.4-11.4-17.3-13.9-29.5
			c-2.5-12-2.1-22.6,1.3-31.6c3.6-9.7,10-15.3,19.1-16.8c5.3-0.9,10.7-0.1,16.3,2.3c3.7,1.6,7.6,4.1,11.7,7.4
			c3.5,2.8,5.3,4.1,5.6,4.1c0.7-0.1,1.3-0.5,1.7-1.3c0.9-1.4,2.4-7.3,4.7-17.8c2.3-10.5,3.3-16.5,3-18c-0.3-1.4-1.2-2.8-2.8-4.4
			c-14.7-14.1-32.1-19.5-52.2-16.2c-18.5,3-31.9,14.5-40.2,34.2c-8,18.9-9.4,40.6-4.4,65c5.2,25.2,15.4,45.1,30.5,59.7
			c15.6,15.1,33,21.1,52.4,17.9c18.9-3.1,32.3-14.4,40-33.8c0.9-2.3,1.2-4.1,0.9-5.4C434,264.3,430.8,259.8,424.4,251.6z"/>
		<path class="st3" d="M510.8,135.2c-1.2-3.8-2-6.7-2.4-8.8c-0.4-1.8-0.9-4.8-1.7-9.1c-0.7-3.9-1.2-6.9-1.7-9.1
			c-0.3-1.4-0.6-2.1-0.9-2.3c-0.2-0.2-1-0.2-2.2,0.1c-0.1,0-4,1.1-11.9,3.2c-14.7,4-24.8,6.4-30.4,7.4c-19.7,3.2-34.7,4.8-45.1,4.8
			c-0.8,0-1.2,0.1-1.3,0.1c-1.1,0.2-1.2,3.3-0.4,9.4c0.5,3.8,1.1,7.6,1.7,11.4c0.1,1.2,0.3,4.7,0.4,10.5c0.2,5.3,0.4,8.4,0.6,9.5
			c0.2,0.8,0.7,1.1,1.7,1c7.4-1.2,17.1-3.6,29.2-7.3c5,21.6,8.1,35.5,9.4,41.8c2,9.5,4.6,23.7,7.9,42.8c3.3,19,5.9,33.3,7.9,42.8
			c0.4,2.1,1.6,3.2,3.4,3.3c3.4,0.1,9-0.5,17-1.8c7.2-1.2,12.6-2.4,16.2-3.7c1.5-0.5,2.3-0.8,2.5-1c0.5-0.5,0.6-1.5,0.2-3
			c-2-9.5-5.2-23.7-9.7-42.6s-7.8-33.1-9.7-42.6c-1.7-8-4.4-22.2-8.2-42.6c16.6-1.5,26-2.4,28.4-2.8c1.4-0.2,1.9-1.1,1.5-2.7
			C512.8,141.9,512,139,510.8,135.2z"/>
		<path class="st3" d="M662.2,168.7c-5.1-24.8-15.7-44.8-31.7-59.9c-16.3-15.3-34-21.4-53-18.3c-19.2,3.2-33.3,14.5-42.3,34
			c-8.9,19.1-10.7,41.1-5.6,66c4.3,20.9,12.4,38.2,24.3,52.1L526,308.7c-5.2,12.3,1.9,26.2,15.6,30.8c13.8,4.6,29.3-1.7,34.5-14l0,0
			l23.8-56.6c4.6,0.4,9.4,0.2,14.2-0.6c19.3-3.2,33.4-14.4,42.5-33.6C665.6,215.8,667.4,193.8,662.2,168.7z M624.4,205.9
			c-4.3,10.1-10.8,15.8-19.5,17.3c-9.4,1.5-17.8-1.5-25.5-9.1c-7.2-7.3-12.1-17.1-14.6-29.3c-2.4-11.5-1.5-22.1,2.5-31.9
			c4.2-10.1,10.7-15.9,19.4-17.4c9.2-1.5,17.6,1.7,25.3,9.5c7.4,7.5,12.3,17.3,14.8,29.3C629.3,185.7,628.5,196.3,624.4,205.9z"/>
	</g>
</g>
</svg>
