<?xml version="1.0" encoding="UTF-8"?><svg id="Calque_1" xmlns="http://www.w3.org/2000/svg" xmlns:xlink="http://www.w3.org/1999/xlink" viewBox="0 0 401.5 466.5"><defs><style>.cls-1{opacity:.12;}.cls-1,.cls-2{fill:#fff;}.cls-2{opacity:.1;}.cls-3{fill:#f2f2f2;opacity:.59;stroke:url(#Blanc__Noir);}.cls-3,.cls-4,.cls-5{stroke-miterlimit:10;}.cls-4{fill:url(#Dégradé_sans_nom_325);stroke:gray;}.cls-5{fill:url(#Dégradé_sans_nom_310);stroke:#666;}</style><linearGradient id="Dégradé_sans_nom_325" x1="342.48" y1="320.66" x2="257.01" y2="370.01" gradientTransform="matrix(1, 0, 0, 1, 0, 0)" gradientUnits="userSpaceOnUse"><stop offset=".16" stop-color="#b3b3b3"/><stop offset="1" stop-color="#000"/></linearGradient><linearGradient id="Dégradé_sans_nom_310" x1="302.33" y1="81.88" x2="22" y2="243.73" gradientTransform="matrix(1, 0, 0, 1, 0, 0)" gradientUnits="userSpaceOnUse"><stop offset="0" stop-color="#ccc"/><stop offset="1" stop-color="#000"/></linearGradient><linearGradient id="Blanc__Noir" x1="37.7" y1="162.08" x2="286.63" y2="162.08" gradientTransform="matrix(1, 0, 0, 1, 0, 0)" gradientUnits="userSpaceOnUse"><stop offset="0" stop-color="#fff"/><stop offset="1" stop-color="#000"/></linearGradient></defs><path class="cls-4" d="M341.01,459.09l-139.02-184.63c-5.77-7.66-4.25-18.67,3.39-24.47l28.73-21.8c7.63-5.79,18.6-4.26,24.37,3.4l139.02,184.63c5.77,7.66,4.25,18.67-3.39,24.47l-28.73,21.8c-7.63,5.79-18.6,4.26-24.37-3.4Z"/><ellipse class="cls-5" cx="162.16" cy="162.81" rx="161.66" ry="162.31"/><ellipse class="cls-3" cx="162.16" cy="162.08" rx="123.97" ry="125.19"/><path class="cls-2" d="M209.48,260.83l38.69-169.79c2.13-9.37-3.75-18.78-13.08-20.92l-21.85-5.02c-9.33-2.14-18.71,3.77-20.84,13.13l-38.69,169.79c-2.13,9.37,3.75,18.78,13.08,20.92l21.85,5.02c9.33,2.14,18.71-3.77,20.84-13.13Z"/><path class="cls-1" d="M138.71,245.6l39.87-174.94c2.13-9.37-3.75-18.78-13.08-20.92l-19.33-4.44c-9.33-2.14-18.71,3.77-20.84,13.13l-39.87,174.94c-2.13,9.37,3.75,18.78,13.08,20.92l19.33,4.44c9.33,2.14,18.71-3.77,20.84-13.13Z"/></svg>